<?xml version="1.0" encoding="utf-8" standalone="no"?>
<!DOCTYPE svg PUBLIC "-//W3C//DTD SVG 1.1//EN"
  "http://www.w3.org/Graphics/SVG/1.1/DTD/svg11.dtd">
<svg xmlns:xlink="http://www.w3.org/1999/xlink" width="502.56122pt" height="226.52249pt" viewBox="0 0 502.56122 226.52249" xmlns="http://www.w3.org/2000/svg" version="1.1">
 <metadata>
  <rdf:RDF xmlns:dc="http://purl.org/dc/elements/1.1/" xmlns:cc="http://creativecommons.org/ns#" xmlns:rdf="http://www.w3.org/1999/02/22-rdf-syntax-ns#">
   <cc:Work>
    <dc:type rdf:resource="http://purl.org/dc/dcmitype/StillImage"/>
    <dc:date>2025-12-19T14:06:59.542949</dc:date>
    <dc:format>image/svg+xml</dc:format>
    <dc:creator>
     <cc:Agent>
      <dc:title>Matplotlib v3.10.7, https://matplotlib.org/</dc:title>
     </cc:Agent>
    </dc:creator>
   </cc:Work>
  </rdf:RDF>
 </metadata>
 <defs>
  <style type="text/css">*{stroke-linejoin: round; stroke-linecap: butt}</style>
 </defs>
 <g id="figure_1">
  <g id="patch_1">
   <path d="M 0 226.52249 
L 502.56122 226.52249 
L 502.56122 0 
L 0 0 
z
" style="fill: #ffffff"/>
  </g>
  <g id="axes_1">
   <g id="patch_2">
    <path d="M 36.4 160.22249 
L 176.47874 160.22249 
L 176.47874 20.14375 
L 36.4 20.14375 
z
" style="fill: #ffffff"/>
   </g>
   <g id="PathCollection_1">
    <defs>
     <path id="mbf180b6f8a" d="M 0 2.236068 
C 0.593012 2.236068 1.161816 2.000462 1.581139 1.581139 
C 2.000462 1.161816 2.236068 0.593012 2.236068 0 
C 2.236068 -0.593012 2.000462 -1.161816 1.581139 -1.581139 
C 1.161816 -2.000462 0.593012 -2.236068 0 -2.236068 
C -0.593012 -2.236068 -1.161816 -2.000462 -1.581139 -1.581139 
C -2.000462 -1.161816 -2.236068 -0.593012 -2.236068 0 
C -2.236068 0.593012 -2.000462 1.161816 -1.581139 1.581139 
C -1.161816 2.000462 -0.593012 2.236068 0 2.236068 
z
" style="stroke: #000000; stroke-opacity: 0.8; stroke-width: 0.6"/>
    </defs>
    <g clip-path="url(#pe1c35a968b)">
     <use xlink:href="#mbf180b6f8a" x="64.415748" y="121.153861" style="fill: #ff9999; fill-opacity: 0.8; stroke: #000000; stroke-opacity: 0.8; stroke-width: 0.6"/>
     <use xlink:href="#mbf180b6f8a" x="78.423622" y="120.817289" style="fill: #ff9999; fill-opacity: 0.8; stroke: #000000; stroke-opacity: 0.8; stroke-width: 0.6"/>
     <use xlink:href="#mbf180b6f8a" x="92.431496" y="120.922566" style="fill: #ff9999; fill-opacity: 0.8; stroke: #000000; stroke-opacity: 0.8; stroke-width: 0.6"/>
     <use xlink:href="#mbf180b6f8a" x="120.447244" y="121.035349" style="fill: #ff9999; fill-opacity: 0.8; stroke: #000000; stroke-opacity: 0.8; stroke-width: 0.6"/>
     <use xlink:href="#mbf180b6f8a" x="148.462992" y="120.104082" style="fill: #ff9999; fill-opacity: 0.8; stroke: #000000; stroke-opacity: 0.8; stroke-width: 0.6"/>
    </g>
   </g>
   <g id="PathCollection_2">
    <defs>
     <path id="m66befde0d7" d="M 0 2.236068 
C 0.593012 2.236068 1.161816 2.000462 1.581139 1.581139 
C 2.000462 1.161816 2.236068 0.593012 2.236068 0 
C 2.236068 -0.593012 2.000462 -1.161816 1.581139 -1.581139 
C 1.161816 -2.000462 0.593012 -2.236068 0 -2.236068 
C -0.593012 -2.236068 -1.161816 -2.000462 -1.581139 -1.581139 
C -2.000462 -1.161816 -2.236068 -0.593012 -2.236068 0 
C -2.236068 0.593012 -2.000462 1.161816 -1.581139 1.581139 
C -1.161816 2.000462 -0.593012 2.236068 0 2.236068 
z
" style="stroke: #000000; stroke-opacity: 0.8; stroke-width: 0.6"/>
    </defs>
    <g clip-path="url(#pe1c35a968b)">
     <use xlink:href="#m66befde0d7" x="64.415748" y="53.532088" style="fill: #ff0000; fill-opacity: 0.8; stroke: #000000; stroke-opacity: 0.8; stroke-width: 0.6"/>
     <use xlink:href="#m66befde0d7" x="78.423622" y="51.726251" style="fill: #ff0000; fill-opacity: 0.8; stroke: #000000; stroke-opacity: 0.8; stroke-width: 0.6"/>
     <use xlink:href="#m66befde0d7" x="92.431496" y="51.641508" style="fill: #ff0000; fill-opacity: 0.8; stroke: #000000; stroke-opacity: 0.8; stroke-width: 0.6"/>
     <use xlink:href="#m66befde0d7" x="120.447244" y="52.777041" style="fill: #ff0000; fill-opacity: 0.8; stroke: #000000; stroke-opacity: 0.8; stroke-width: 0.6"/>
     <use xlink:href="#m66befde0d7" x="148.462992" y="54.264117" style="fill: #ff0000; fill-opacity: 0.8; stroke: #000000; stroke-opacity: 0.8; stroke-width: 0.6"/>
    </g>
   </g>
   <g id="PathCollection_3">
    <defs>
     <path id="m2be84823ad" d="M 0 2.236068 
C 0.593012 2.236068 1.161816 2.000462 1.581139 1.581139 
C 2.000462 1.161816 2.236068 0.593012 2.236068 0 
C 2.236068 -0.593012 2.000462 -1.161816 1.581139 -1.581139 
C 1.161816 -2.000462 0.593012 -2.236068 0 -2.236068 
C -0.593012 -2.236068 -1.161816 -2.000462 -1.581139 -1.581139 
C -2.000462 -1.161816 -2.236068 -0.593012 -2.236068 0 
C -2.236068 0.593012 -2.000462 1.161816 -1.581139 1.581139 
C -1.161816 2.000462 -0.593012 2.236068 0 2.236068 
z
" style="stroke: #000000; stroke-opacity: 0.8; stroke-width: 0.6"/>
    </defs>
    <g clip-path="url(#pe1c35a968b)">
     <use xlink:href="#m2be84823ad" x="64.415748" y="114.748294" style="fill: #4e4e4e; fill-opacity: 0.8; stroke: #000000; stroke-opacity: 0.8; stroke-width: 0.6"/>
     <use xlink:href="#m2be84823ad" x="78.423622" y="117.086559" style="fill: #4e4e4e; fill-opacity: 0.8; stroke: #000000; stroke-opacity: 0.8; stroke-width: 0.6"/>
     <use xlink:href="#m2be84823ad" x="92.431496" y="118.462158" style="fill: #4e4e4e; fill-opacity: 0.8; stroke: #000000; stroke-opacity: 0.8; stroke-width: 0.6"/>
     <use xlink:href="#m2be84823ad" x="120.447244" y="120.313755" style="fill: #4e4e4e; fill-opacity: 0.8; stroke: #000000; stroke-opacity: 0.8; stroke-width: 0.6"/>
     <use xlink:href="#m2be84823ad" x="148.462992" y="119.584203" style="fill: #4e4e4e; fill-opacity: 0.8; stroke: #000000; stroke-opacity: 0.8; stroke-width: 0.6"/>
    </g>
   </g>
   <g id="PathCollection_4">
    <defs>
     <path id="m5f4d4d2871" d="M 0 2.236068 
C 0.593012 2.236068 1.161816 2.000462 1.581139 1.581139 
C 2.000462 1.161816 2.236068 0.593012 2.236068 0 
C 2.236068 -0.593012 2.000462 -1.161816 1.581139 -1.581139 
C 1.161816 -2.000462 0.593012 -2.236068 0 -2.236068 
C -0.593012 -2.236068 -1.161816 -2.000462 -1.581139 -1.581139 
C -2.000462 -1.161816 -2.236068 -0.593012 -2.236068 0 
C -2.236068 0.593012 -2.000462 1.161816 -1.581139 1.581139 
C -1.161816 2.000462 -0.593012 2.236068 0 2.236068 
z
" style="stroke: #000000; stroke-opacity: 0.8; stroke-width: 0.6"/>
    </defs>
    <g clip-path="url(#pe1c35a968b)">
     <use xlink:href="#m5f4d4d2871" x="64.415748" y="54.016562" style="fill-opacity: 0.8; stroke: #000000; stroke-opacity: 0.8; stroke-width: 0.6"/>
     <use xlink:href="#m5f4d4d2871" x="78.423622" y="55.961034" style="fill-opacity: 0.8; stroke: #000000; stroke-opacity: 0.8; stroke-width: 0.6"/>
     <use xlink:href="#m5f4d4d2871" x="92.431496" y="54.762594" style="fill-opacity: 0.8; stroke: #000000; stroke-opacity: 0.8; stroke-width: 0.6"/>
     <use xlink:href="#m5f4d4d2871" x="120.447244" y="55.113958" style="fill-opacity: 0.8; stroke: #000000; stroke-opacity: 0.8; stroke-width: 0.6"/>
     <use xlink:href="#m5f4d4d2871" x="148.462992" y="54.494084" style="fill-opacity: 0.8; stroke: #000000; stroke-opacity: 0.8; stroke-width: 0.6"/>
    </g>
   </g>
   <g id="PathCollection_5">
    <defs>
     <path id="maed2c19d13" d="M 0 2.236068 
C 0.593012 2.236068 1.161816 2.000462 1.581139 1.581139 
C 2.000462 1.161816 2.236068 0.593012 2.236068 0 
C 2.236068 -0.593012 2.000462 -1.161816 1.581139 -1.581139 
C 1.161816 -2.000462 0.593012 -2.236068 0 -2.236068 
C -0.593012 -2.236068 -1.161816 -2.000462 -1.581139 -1.581139 
C -2.000462 -1.161816 -2.236068 -0.593012 -2.236068 0 
C -2.236068 0.593012 -2.000462 1.161816 -1.581139 1.581139 
C -1.161816 2.000462 -0.593012 2.236068 0 2.236068 
z
" style="stroke: #000000; stroke-opacity: 0.8; stroke-width: 0.6"/>
    </defs>
    <g clip-path="url(#pe1c35a968b)">
     <use xlink:href="#maed2c19d13" x="64.415748" y="119.03116" style="fill: #9999ff; fill-opacity: 0.8; stroke: #000000; stroke-opacity: 0.8; stroke-width: 0.6"/>
     <use xlink:href="#maed2c19d13" x="78.423622" y="124.613362" style="fill: #9999ff; fill-opacity: 0.8; stroke: #000000; stroke-opacity: 0.8; stroke-width: 0.6"/>
     <use xlink:href="#maed2c19d13" x="92.431496" y="123.577719" style="fill: #9999ff; fill-opacity: 0.8; stroke: #000000; stroke-opacity: 0.8; stroke-width: 0.6"/>
     <use xlink:href="#maed2c19d13" x="120.447244" y="121.518114" style="fill: #9999ff; fill-opacity: 0.8; stroke: #000000; stroke-opacity: 0.8; stroke-width: 0.6"/>
     <use xlink:href="#maed2c19d13" x="148.462992" y="123.517873" style="fill: #9999ff; fill-opacity: 0.8; stroke: #000000; stroke-opacity: 0.8; stroke-width: 0.6"/>
    </g>
   </g>
   <g id="PathCollection_6">
    <defs>
     <path id="m1cf58b764b" d="M 0 2.236068 
C 0.593012 2.236068 1.161816 2.000462 1.581139 1.581139 
C 2.000462 1.161816 2.236068 0.593012 2.236068 0 
C 2.236068 -0.593012 2.000462 -1.161816 1.581139 -1.581139 
C 1.161816 -2.000462 0.593012 -2.236068 0 -2.236068 
C -0.593012 -2.236068 -1.161816 -2.000462 -1.581139 -1.581139 
C -2.000462 -1.161816 -2.236068 -0.593012 -2.236068 0 
C -2.236068 0.593012 -2.000462 1.161816 -1.581139 1.581139 
C -1.161816 2.000462 -0.593012 2.236068 0 2.236068 
z
" style="stroke: #000000; stroke-opacity: 0.8; stroke-width: 0.6"/>
    </defs>
    <g clip-path="url(#pe1c35a968b)">
     <use xlink:href="#m1cf58b764b" x="64.415748" y="62.135972" style="fill: #0000ff; fill-opacity: 0.8; stroke: #000000; stroke-opacity: 0.8; stroke-width: 0.6"/>
     <use xlink:href="#m1cf58b764b" x="78.423622" y="64.54403" style="fill: #0000ff; fill-opacity: 0.8; stroke: #000000; stroke-opacity: 0.8; stroke-width: 0.6"/>
     <use xlink:href="#m1cf58b764b" x="92.431496" y="63.699775" style="fill: #0000ff; fill-opacity: 0.8; stroke: #000000; stroke-opacity: 0.8; stroke-width: 0.6"/>
     <use xlink:href="#m1cf58b764b" x="120.447244" y="64.248931" style="fill: #0000ff; fill-opacity: 0.8; stroke: #000000; stroke-opacity: 0.8; stroke-width: 0.6"/>
     <use xlink:href="#m1cf58b764b" x="148.462992" y="65.294171" style="fill: #0000ff; fill-opacity: 0.8; stroke: #000000; stroke-opacity: 0.8; stroke-width: 0.6"/>
    </g>
   </g>
   <g id="matplotlib.axis_1">
    <g id="xtick_1">
     <g id="line2d_1">
      <path d="M 36.4 160.22249 
L 36.4 20.14375 
" clip-path="url(#pe1c35a968b)" style="fill: none; stroke: #808080; stroke-opacity: 0.3; stroke-width: 0.4; stroke-linecap: square"/>
     </g>
     <g id="line2d_2">
      <defs>
       <path id="mec8b08eae8" d="M 0 0 
L 0 3.5 
" style="stroke: #000000; stroke-width: 0.8"/>
      </defs>
      <g>
       <use xlink:href="#mec8b08eae8" x="36.4" y="160.22249" style="stroke: #000000; stroke-width: 0.8"/>
      </g>
     </g>
     <g id="text_1">
      <!-- −0.5 -->
      <g transform="translate(28.237422 173.471865) scale(0.09 -0.09)">
       <defs>
        <path id="TimesNewRomanPSMT-2212" d="M 3484 2000 
L 116 2000 
L 116 2256 
L 3484 2256 
L 3484 2000 
z
" transform="scale(0.015625)"/>
        <path id="TimesNewRomanPSMT-30" d="M 231 2094 
Q 231 2819 450 3342 
Q 669 3866 1031 4122 
Q 1313 4325 1613 4325 
Q 2100 4325 2488 3828 
Q 2972 3213 2972 2159 
Q 2972 1422 2759 906 
Q 2547 391 2217 158 
Q 1888 -75 1581 -75 
Q 975 -75 572 641 
Q 231 1244 231 2094 
z
M 844 2016 
Q 844 1141 1059 588 
Q 1238 122 1591 122 
Q 1759 122 1940 273 
Q 2122 425 2216 781 
Q 2359 1319 2359 2297 
Q 2359 3022 2209 3506 
Q 2097 3866 1919 4016 
Q 1791 4119 1609 4119 
Q 1397 4119 1231 3928 
Q 1006 3669 925 3112 
Q 844 2556 844 2016 
z
" transform="scale(0.015625)"/>
        <path id="TimesNewRomanPSMT-2e" d="M 800 606 
Q 947 606 1047 504 
Q 1147 403 1147 259 
Q 1147 116 1045 14 
Q 944 -88 800 -88 
Q 656 -88 554 14 
Q 453 116 453 259 
Q 453 406 554 506 
Q 656 606 800 606 
z
" transform="scale(0.015625)"/>
        <path id="TimesNewRomanPSMT-35" d="M 2778 4238 
L 2534 3706 
L 1259 3706 
L 981 3138 
Q 1809 3016 2294 2522 
Q 2709 2097 2709 1522 
Q 2709 1188 2573 903 
Q 2438 619 2231 419 
Q 2025 219 1772 97 
Q 1413 -75 1034 -75 
Q 653 -75 479 54 
Q 306 184 306 341 
Q 306 428 378 495 
Q 450 563 559 563 
Q 641 563 702 538 
Q 763 513 909 409 
Q 1144 247 1384 247 
Q 1750 247 2026 523 
Q 2303 800 2303 1197 
Q 2303 1581 2056 1914 
Q 1809 2247 1375 2428 
Q 1034 2569 447 2591 
L 1259 4238 
L 2778 4238 
z
" transform="scale(0.015625)"/>
       </defs>
       <use xlink:href="#TimesNewRomanPSMT-2212"/>
       <use xlink:href="#TimesNewRomanPSMT-30" transform="translate(56.396484 0)"/>
       <use xlink:href="#TimesNewRomanPSMT-2e" transform="translate(106.396484 0)"/>
       <use xlink:href="#TimesNewRomanPSMT-35" transform="translate(131.396484 0)"/>
      </g>
     </g>
    </g>
    <g id="xtick_2">
     <g id="line2d_3">
      <path d="M 64.415748 160.22249 
L 64.415748 20.14375 
" clip-path="url(#pe1c35a968b)" style="fill: none; stroke: #808080; stroke-opacity: 0.3; stroke-width: 0.4; stroke-linecap: square"/>
     </g>
     <g id="line2d_4">
      <g>
       <use xlink:href="#mec8b08eae8" x="64.415748" y="160.22249" style="stroke: #000000; stroke-width: 0.8"/>
      </g>
     </g>
     <g id="text_2">
      <!-- 0.0 -->
      <g transform="translate(58.790748 173.471865) scale(0.09 -0.09)">
       <use xlink:href="#TimesNewRomanPSMT-30"/>
       <use xlink:href="#TimesNewRomanPSMT-2e" transform="translate(50 0)"/>
       <use xlink:href="#TimesNewRomanPSMT-30" transform="translate(75 0)"/>
      </g>
     </g>
    </g>
    <g id="xtick_3">
     <g id="line2d_5">
      <path d="M 92.431496 160.22249 
L 92.431496 20.14375 
" clip-path="url(#pe1c35a968b)" style="fill: none; stroke: #808080; stroke-opacity: 0.3; stroke-width: 0.4; stroke-linecap: square"/>
     </g>
     <g id="line2d_6">
      <g>
       <use xlink:href="#mec8b08eae8" x="92.431496" y="160.22249" style="stroke: #000000; stroke-width: 0.8"/>
      </g>
     </g>
     <g id="text_3">
      <!-- 0.5 -->
      <g transform="translate(86.806496 173.471865) scale(0.09 -0.09)">
       <use xlink:href="#TimesNewRomanPSMT-30"/>
       <use xlink:href="#TimesNewRomanPSMT-2e" transform="translate(50 0)"/>
       <use xlink:href="#TimesNewRomanPSMT-35" transform="translate(75 0)"/>
      </g>
     </g>
    </g>
    <g id="xtick_4">
     <g id="line2d_7">
      <path d="M 120.447244 160.22249 
L 120.447244 20.14375 
" clip-path="url(#pe1c35a968b)" style="fill: none; stroke: #808080; stroke-opacity: 0.3; stroke-width: 0.4; stroke-linecap: square"/>
     </g>
     <g id="line2d_8">
      <g>
       <use xlink:href="#mec8b08eae8" x="120.447244" y="160.22249" style="stroke: #000000; stroke-width: 0.8"/>
      </g>
     </g>
     <g id="text_4">
      <!-- 1.0 -->
      <g transform="translate(114.822244 173.471865) scale(0.09 -0.09)">
       <defs>
        <path id="TimesNewRomanPSMT-31" d="M 750 3822 
L 1781 4325 
L 1884 4325 
L 1884 747 
Q 1884 391 1914 303 
Q 1944 216 2037 169 
Q 2131 122 2419 116 
L 2419 0 
L 825 0 
L 825 116 
Q 1125 122 1212 167 
Q 1300 213 1334 289 
Q 1369 366 1369 747 
L 1369 3034 
Q 1369 3497 1338 3628 
Q 1316 3728 1258 3775 
Q 1200 3822 1119 3822 
Q 1003 3822 797 3725 
L 750 3822 
z
" transform="scale(0.015625)"/>
       </defs>
       <use xlink:href="#TimesNewRomanPSMT-31"/>
       <use xlink:href="#TimesNewRomanPSMT-2e" transform="translate(50 0)"/>
       <use xlink:href="#TimesNewRomanPSMT-30" transform="translate(75 0)"/>
      </g>
     </g>
    </g>
    <g id="xtick_5">
     <g id="line2d_9">
      <path d="M 148.462992 160.22249 
L 148.462992 20.14375 
" clip-path="url(#pe1c35a968b)" style="fill: none; stroke: #808080; stroke-opacity: 0.3; stroke-width: 0.4; stroke-linecap: square"/>
     </g>
     <g id="line2d_10">
      <g>
       <use xlink:href="#mec8b08eae8" x="148.462992" y="160.22249" style="stroke: #000000; stroke-width: 0.8"/>
      </g>
     </g>
     <g id="text_5">
      <!-- 1.5 -->
      <g transform="translate(142.837992 173.471865) scale(0.09 -0.09)">
       <use xlink:href="#TimesNewRomanPSMT-31"/>
       <use xlink:href="#TimesNewRomanPSMT-2e" transform="translate(50 0)"/>
       <use xlink:href="#TimesNewRomanPSMT-35" transform="translate(75 0)"/>
      </g>
     </g>
    </g>
    <g id="xtick_6">
     <g id="line2d_11">
      <path d="M 176.47874 160.22249 
L 176.47874 20.14375 
" clip-path="url(#pe1c35a968b)" style="fill: none; stroke: #808080; stroke-opacity: 0.3; stroke-width: 0.4; stroke-linecap: square"/>
     </g>
     <g id="line2d_12">
      <g>
       <use xlink:href="#mec8b08eae8" x="176.47874" y="160.22249" style="stroke: #000000; stroke-width: 0.8"/>
      </g>
     </g>
     <g id="text_6">
      <!-- 2.0 -->
      <g transform="translate(170.85374 173.471865) scale(0.09 -0.09)">
       <defs>
        <path id="TimesNewRomanPSMT-32" d="M 2934 816 
L 2638 0 
L 138 0 
L 138 116 
Q 1241 1122 1691 1759 
Q 2141 2397 2141 2925 
Q 2141 3328 1894 3587 
Q 1647 3847 1303 3847 
Q 991 3847 742 3664 
Q 494 3481 375 3128 
L 259 3128 
Q 338 3706 661 4015 
Q 984 4325 1469 4325 
Q 1984 4325 2329 3994 
Q 2675 3663 2675 3213 
Q 2675 2891 2525 2569 
Q 2294 2063 1775 1497 
Q 997 647 803 472 
L 1909 472 
Q 2247 472 2383 497 
Q 2519 522 2628 598 
Q 2738 675 2819 816 
L 2934 816 
z
" transform="scale(0.015625)"/>
       </defs>
       <use xlink:href="#TimesNewRomanPSMT-32"/>
       <use xlink:href="#TimesNewRomanPSMT-2e" transform="translate(50 0)"/>
       <use xlink:href="#TimesNewRomanPSMT-30" transform="translate(75 0)"/>
      </g>
     </g>
    </g>
    <g id="text_7">
     <!-- $\Delta P_{in}$ -->
     <g transform="translate(95.43937 186.340771) scale(0.1 -0.1)">
      <defs>
       <path id="Cmr10-a2" d="M 347 0 
Q 294 0 294 50 
Q 297 56 298 59 
Q 300 63 300 72 
L 2503 4513 
Q 2531 4581 2619 4581 
L 2706 4581 
Q 2794 4581 2822 4513 
L 5025 72 
Q 5028 66 5029 61 
Q 5031 56 5031 50 
Q 5031 0 4978 0 
L 347 0 
z
M 769 513 
L 4141 513 
L 2456 3909 
L 769 513 
z
" transform="scale(0.015625)"/>
       <path id="Cmmi10-50" d="M 313 0 
Q 250 0 250 84 
Q 253 100 262 139 
Q 272 178 289 201 
Q 306 225 331 225 
Q 722 225 878 269 
Q 959 297 997 441 
L 1875 3956 
Q 1888 4019 1888 4044 
Q 1888 4113 1813 4122 
Q 1691 4147 1350 4147 
Q 1288 4147 1288 4231 
Q 1291 4247 1300 4286 
Q 1309 4325 1326 4348 
Q 1344 4372 1369 4372 
L 3578 4372 
Q 3881 4372 4165 4264 
Q 4450 4156 4631 3934 
Q 4813 3713 4813 3397 
Q 4813 2991 4527 2672 
Q 4241 2353 3814 2175 
Q 3388 1997 2988 1997 
L 1947 1997 
L 1556 416 
Q 1544 353 1544 325 
Q 1544 300 1551 283 
Q 1559 266 1573 261 
Q 1588 256 1619 250 
Q 1741 225 2081 225 
Q 2144 225 2144 141 
Q 2122 50 2109 25 
Q 2097 0 2034 0 
L 313 0 
z
M 1978 2188 
L 2875 2188 
Q 3497 2188 3822 2522 
Q 3988 2688 4092 3000 
Q 4197 3313 4197 3566 
Q 4197 3881 3956 4014 
Q 3716 4147 3359 4147 
L 2747 4147 
Q 2572 4147 2515 4117 
Q 2459 4088 2413 3928 
L 1978 2188 
z
" transform="scale(0.015625)"/>
       <path id="Cmmi10-69" d="M 500 459 
Q 500 578 550 709 
L 1069 2088 
Q 1153 2322 1153 2472 
Q 1153 2663 1013 2663 
Q 759 2663 595 2402 
Q 431 2141 353 1819 
Q 341 1778 300 1778 
L 225 1778 
Q 172 1778 172 1838 
L 172 1856 
Q 275 2238 487 2533 
Q 700 2828 1025 2828 
Q 1253 2828 1411 2678 
Q 1569 2528 1569 2297 
Q 1569 2178 1516 2047 
L 997 672 
Q 909 459 909 288 
Q 909 97 1056 97 
Q 1306 97 1473 364 
Q 1641 631 1709 941 
Q 1722 978 1759 978 
L 1838 978 
Q 1863 978 1878 961 
Q 1894 944 1894 922 
Q 1894 916 1888 903 
Q 1800 541 1583 234 
Q 1366 -72 1044 -72 
Q 819 -72 659 83 
Q 500 238 500 459 
z
M 1222 3878 
Q 1222 4013 1334 4122 
Q 1447 4231 1581 4231 
Q 1691 4231 1761 4164 
Q 1831 4097 1831 3994 
Q 1831 3850 1717 3742 
Q 1603 3634 1466 3634 
Q 1363 3634 1292 3704 
Q 1222 3775 1222 3878 
z
" transform="scale(0.015625)"/>
       <path id="Cmmi10-6e" d="M 494 109 
Q 494 147 500 166 
L 978 2075 
Q 1025 2253 1025 2388 
Q 1025 2663 838 2663 
Q 638 2663 541 2423 
Q 444 2184 353 1819 
Q 353 1800 334 1789 
Q 316 1778 300 1778 
L 225 1778 
Q 203 1778 187 1801 
Q 172 1825 172 1844 
Q 241 2122 305 2315 
Q 369 2509 505 2668 
Q 641 2828 844 2828 
Q 1084 2828 1268 2676 
Q 1453 2525 1453 2291 
Q 1644 2541 1900 2684 
Q 2156 2828 2444 2828 
Q 2672 2828 2837 2750 
Q 3003 2672 3095 2514 
Q 3188 2356 3188 2138 
Q 3188 1875 3070 1503 
Q 2953 1131 2778 672 
Q 2688 463 2688 288 
Q 2688 97 2834 97 
Q 3084 97 3251 365 
Q 3419 634 3488 941 
Q 3500 978 3541 978 
L 3616 978 
Q 3641 978 3658 962 
Q 3675 947 3675 922 
Q 3675 916 3669 903 
Q 3581 541 3364 234 
Q 3147 -72 2822 -72 
Q 2597 -72 2437 83 
Q 2278 238 2278 459 
Q 2278 578 2328 709 
Q 2409 919 2514 1209 
Q 2619 1500 2686 1765 
Q 2753 2031 2753 2234 
Q 2753 2413 2679 2538 
Q 2606 2663 2431 2663 
Q 2197 2663 2000 2559 
Q 1803 2456 1656 2286 
Q 1509 2116 1388 1881 
L 953 141 
Q 931 53 854 -9 
Q 778 -72 684 -72 
Q 606 -72 550 -22 
Q 494 28 494 109 
z
" transform="scale(0.015625)"/>
      </defs>
      <use xlink:href="#Cmr10-a2" transform="translate(0 0.421875)"/>
      <use xlink:href="#Cmmi10-50" transform="translate(83.300781 0.421875)"/>
      <use xlink:href="#Cmmi10-69" transform="translate(147.509766 -16.584375) scale(0.7)"/>
      <use xlink:href="#Cmmi10-6e" transform="translate(171.606445 -16.584375) scale(0.7)"/>
     </g>
    </g>
   </g>
   <g id="matplotlib.axis_2">
    <g id="ytick_1">
     <g id="line2d_13">
      <path d="M 36.4 160.22249 
L 176.47874 160.22249 
" clip-path="url(#pe1c35a968b)" style="fill: none; stroke: #808080; stroke-opacity: 0.3; stroke-width: 0.4; stroke-linecap: square"/>
     </g>
     <g id="line2d_14">
      <defs>
       <path id="mb2430aa8ff" d="M 0 0 
L -3.5 0 
" style="stroke: #000000; stroke-width: 0.8"/>
      </defs>
      <g>
       <use xlink:href="#mb2430aa8ff" x="36.4" y="160.22249" style="stroke: #000000; stroke-width: 0.8"/>
      </g>
     </g>
     <g id="text_8">
      <!-- 10 -->
      <g transform="translate(20.4 163.347178) scale(0.09 -0.09)">
       <use xlink:href="#TimesNewRomanPSMT-31"/>
       <use xlink:href="#TimesNewRomanPSMT-30" transform="translate(50 0)"/>
      </g>
     </g>
    </g>
    <g id="ytick_2">
     <g id="line2d_15">
      <path d="M 36.4 125.202805 
L 176.47874 125.202805 
" clip-path="url(#pe1c35a968b)" style="fill: none; stroke: #808080; stroke-opacity: 0.3; stroke-width: 0.4; stroke-linecap: square"/>
     </g>
     <g id="line2d_16">
      <g>
       <use xlink:href="#mb2430aa8ff" x="36.4" y="125.202805" style="stroke: #000000; stroke-width: 0.8"/>
      </g>
     </g>
     <g id="text_9">
      <!-- 20 -->
      <g transform="translate(20.4 128.327493) scale(0.09 -0.09)">
       <use xlink:href="#TimesNewRomanPSMT-32"/>
       <use xlink:href="#TimesNewRomanPSMT-30" transform="translate(50 0)"/>
      </g>
     </g>
    </g>
    <g id="ytick_3">
     <g id="line2d_17">
      <path d="M 36.4 90.18312 
L 176.47874 90.18312 
" clip-path="url(#pe1c35a968b)" style="fill: none; stroke: #808080; stroke-opacity: 0.3; stroke-width: 0.4; stroke-linecap: square"/>
     </g>
     <g id="line2d_18">
      <g>
       <use xlink:href="#mb2430aa8ff" x="36.4" y="90.18312" style="stroke: #000000; stroke-width: 0.8"/>
      </g>
     </g>
     <g id="text_10">
      <!-- 30 -->
      <g transform="translate(20.4 93.307808) scale(0.09 -0.09)">
       <defs>
        <path id="TimesNewRomanPSMT-33" d="M 325 3431 
Q 506 3859 782 4092 
Q 1059 4325 1472 4325 
Q 1981 4325 2253 3994 
Q 2459 3747 2459 3466 
Q 2459 3003 1878 2509 
Q 2269 2356 2469 2072 
Q 2669 1788 2669 1403 
Q 2669 853 2319 450 
Q 1863 -75 997 -75 
Q 569 -75 414 31 
Q 259 138 259 259 
Q 259 350 332 419 
Q 406 488 509 488 
Q 588 488 669 463 
Q 722 447 909 348 
Q 1097 250 1169 231 
Q 1284 197 1416 197 
Q 1734 197 1970 444 
Q 2206 691 2206 1028 
Q 2206 1275 2097 1509 
Q 2016 1684 1919 1775 
Q 1784 1900 1550 2001 
Q 1316 2103 1072 2103 
L 972 2103 
L 972 2197 
Q 1219 2228 1467 2375 
Q 1716 2522 1828 2728 
Q 1941 2934 1941 3181 
Q 1941 3503 1739 3701 
Q 1538 3900 1238 3900 
Q 753 3900 428 3381 
L 325 3431 
z
" transform="scale(0.015625)"/>
       </defs>
       <use xlink:href="#TimesNewRomanPSMT-33"/>
       <use xlink:href="#TimesNewRomanPSMT-30" transform="translate(50 0)"/>
      </g>
     </g>
    </g>
    <g id="ytick_4">
     <g id="line2d_19">
      <path d="M 36.4 55.163435 
L 176.47874 55.163435 
" clip-path="url(#pe1c35a968b)" style="fill: none; stroke: #808080; stroke-opacity: 0.3; stroke-width: 0.4; stroke-linecap: square"/>
     </g>
     <g id="line2d_20">
      <g>
       <use xlink:href="#mb2430aa8ff" x="36.4" y="55.163435" style="stroke: #000000; stroke-width: 0.8"/>
      </g>
     </g>
     <g id="text_11">
      <!-- 40 -->
      <g transform="translate(20.4 58.288123) scale(0.09 -0.09)">
       <defs>
        <path id="TimesNewRomanPSMT-34" d="M 2978 1563 
L 2978 1119 
L 2409 1119 
L 2409 0 
L 1894 0 
L 1894 1119 
L 100 1119 
L 100 1519 
L 2066 4325 
L 2409 4325 
L 2409 1563 
L 2978 1563 
z
M 1894 1563 
L 1894 3666 
L 406 1563 
L 1894 1563 
z
" transform="scale(0.015625)"/>
       </defs>
       <use xlink:href="#TimesNewRomanPSMT-34"/>
       <use xlink:href="#TimesNewRomanPSMT-30" transform="translate(50 0)"/>
      </g>
     </g>
    </g>
    <g id="ytick_5">
     <g id="line2d_21">
      <path d="M 36.4 20.14375 
L 176.47874 20.14375 
" clip-path="url(#pe1c35a968b)" style="fill: none; stroke: #808080; stroke-opacity: 0.3; stroke-width: 0.4; stroke-linecap: square"/>
     </g>
     <g id="line2d_22">
      <g>
       <use xlink:href="#mb2430aa8ff" x="36.4" y="20.14375" style="stroke: #000000; stroke-width: 0.8"/>
      </g>
     </g>
     <g id="text_12">
      <!-- 50 -->
      <g transform="translate(20.4 23.268437) scale(0.09 -0.09)">
       <use xlink:href="#TimesNewRomanPSMT-35"/>
       <use xlink:href="#TimesNewRomanPSMT-30" transform="translate(50 0)"/>
      </g>
     </g>
    </g>
    <g id="text_13">
     <!-- $UA$ [kW/K] -->
     <g transform="translate(14.260938 114.18312) rotate(-90) scale(0.1 -0.1)">
      <defs>
       <path id="Cmmi10-55" d="M 941 891 
Q 941 656 1033 472 
Q 1125 288 1300 186 
Q 1475 84 1709 84 
Q 1984 84 2245 196 
Q 2506 309 2715 509 
Q 2925 709 3073 965 
Q 3222 1222 3284 1472 
L 3859 3781 
Q 3872 3850 3872 3878 
Q 3872 4147 3378 4147 
Q 3316 4147 3316 4231 
Q 3338 4313 3350 4342 
Q 3363 4372 3425 4372 
L 4813 4372 
Q 4841 4372 4859 4344 
Q 4878 4316 4878 4288 
Q 4878 4284 4865 4239 
Q 4853 4194 4836 4170 
Q 4819 4147 4794 4147 
Q 4181 4147 4084 3756 
L 3506 1447 
Q 3434 1147 3264 864 
Q 3094 581 2845 351 
Q 2597 122 2298 -9 
Q 2000 -141 1691 -141 
Q 1338 -141 1045 14 
Q 753 169 587 447 
Q 422 725 422 1088 
Q 422 1297 469 1472 
L 1088 3956 
Q 1100 4019 1100 4044 
Q 1100 4113 1025 4122 
Q 903 4147 563 4147 
Q 500 4147 500 4231 
Q 522 4313 534 4342 
Q 547 4372 609 4372 
L 2328 4372 
Q 2394 4372 2394 4288 
Q 2391 4272 2381 4234 
Q 2372 4197 2356 4172 
Q 2341 4147 2309 4147 
Q 1919 4147 1766 4103 
Q 1681 4072 1644 3928 
L 1025 1447 
Q 941 1109 941 891 
z
" transform="scale(0.015625)"/>
       <path id="Cmmi10-41" d="M 288 0 
Q 225 0 225 84 
Q 250 225 306 225 
Q 566 225 755 328 
Q 944 431 1081 647 
Q 1094 659 1094 659 
L 3378 4513 
Q 3428 4581 3500 4581 
L 3584 4581 
Q 3603 4581 3622 4573 
Q 3641 4566 3655 4548 
Q 3669 4531 3669 4513 
L 4056 378 
Q 4056 350 4084 294 
Q 4147 225 4563 225 
Q 4628 225 4628 141 
Q 4606 56 4592 28 
Q 4578 0 4519 0 
L 2919 0 
Q 2859 0 2859 84 
Q 2894 225 2944 225 
Q 3450 225 3481 397 
L 3384 1453 
L 1806 1453 
L 1294 594 
Q 1247 525 1247 434 
Q 1247 322 1355 273 
Q 1463 225 1594 225 
Q 1656 225 1656 141 
Q 1634 50 1621 25 
Q 1609 0 1550 0 
L 288 0 
z
M 1931 1678 
L 3359 1678 
L 3169 3750 
L 1931 1678 
z
" transform="scale(0.015625)"/>
       <path id="TimesNewRomanPSMT-20" transform="scale(0.015625)"/>
       <path id="TimesNewRomanPSMT-5b" d="M 1900 -1269 
L 525 -1269 
L 525 4334 
L 1900 4334 
L 1900 4088 
L 994 4088 
L 994 -1025 
L 1900 -1025 
L 1900 -1269 
z
" transform="scale(0.015625)"/>
       <path id="TimesNewRomanPSMT-6b" d="M 1047 4444 
L 1047 1597 
L 1775 2259 
Q 2006 2472 2044 2528 
Q 2069 2566 2069 2603 
Q 2069 2666 2017 2711 
Q 1966 2756 1847 2763 
L 1847 2863 
L 3091 2863 
L 3091 2763 
Q 2834 2756 2664 2684 
Q 2494 2613 2291 2428 
L 1556 1750 
L 2291 822 
Q 2597 438 2703 334 
Q 2853 188 2966 144 
Q 3044 113 3238 113 
L 3238 0 
L 1847 0 
L 1847 113 
Q 1966 116 2008 148 
Q 2050 181 2050 241 
Q 2050 313 1925 472 
L 1047 1594 
L 1047 644 
Q 1047 366 1086 278 
Q 1125 191 1197 153 
Q 1269 116 1509 113 
L 1509 0 
L 53 0 
L 53 113 
Q 272 113 381 166 
Q 447 200 481 272 
Q 528 375 528 628 
L 528 3234 
Q 528 3731 506 3842 
Q 484 3953 434 3995 
Q 384 4038 303 4038 
Q 238 4038 106 3984 
L 53 4094 
L 903 4444 
L 1047 4444 
z
" transform="scale(0.015625)"/>
       <path id="TimesNewRomanPSMT-57" d="M 5991 4238 
L 5991 4122 
Q 5825 4122 5722 4062 
Q 5619 4003 5525 3841 
Q 5463 3731 5328 3319 
L 4147 -97 
L 4022 -97 
L 3056 2613 
L 2097 -97 
L 1984 -97 
L 725 3422 
Q 584 3816 547 3888 
Q 484 4006 376 4064 
Q 269 4122 84 4122 
L 84 4238 
L 1653 4238 
L 1653 4122 
L 1578 4122 
Q 1413 4122 1325 4047 
Q 1238 3972 1238 3866 
Q 1238 3756 1375 3363 
L 2209 984 
L 2913 3006 
L 2788 3363 
L 2688 3647 
Q 2622 3803 2541 3922 
Q 2500 3981 2441 4022 
Q 2363 4078 2284 4103 
Q 2225 4122 2097 4122 
L 2097 4238 
L 3747 4238 
L 3747 4122 
L 3634 4122 
Q 3459 4122 3378 4047 
Q 3297 3972 3297 3844 
Q 3297 3684 3438 3288 
L 4250 984 
L 5056 3319 
Q 5194 3706 5194 3856 
Q 5194 3928 5148 3990 
Q 5103 4053 5034 4078 
Q 4916 4122 4725 4122 
L 4725 4238 
L 5991 4238 
z
" transform="scale(0.015625)"/>
       <path id="TimesNewRomanPSMT-2f" d="M 1794 4444 
L 259 -88 
L 9 -88 
L 1544 4444 
L 1794 4444 
z
" transform="scale(0.015625)"/>
       <path id="TimesNewRomanPSMT-4b" d="M 1913 2350 
L 3475 797 
Q 3859 413 4131 273 
Q 4403 134 4675 116 
L 4675 0 
L 2659 0 
L 2659 116 
Q 2841 116 2920 177 
Q 3000 238 3000 313 
Q 3000 388 2970 447 
Q 2941 506 2775 669 
L 1313 2116 
L 1313 750 
Q 1313 428 1353 325 
Q 1384 247 1484 191 
Q 1619 116 1769 116 
L 1913 116 
L 1913 0 
L 106 0 
L 106 116 
L 256 116 
Q 519 116 638 269 
Q 713 369 713 750 
L 713 3488 
Q 713 3809 672 3916 
Q 641 3991 544 4047 
Q 406 4122 256 4122 
L 106 4122 
L 106 4238 
L 1913 4238 
L 1913 4122 
L 1769 4122 
Q 1622 4122 1484 4050 
Q 1388 4000 1350 3900 
Q 1313 3800 1313 3488 
L 1313 2191 
Q 1375 2250 1741 2588 
Q 2669 3438 2863 3722 
Q 2947 3847 2947 3941 
Q 2947 4013 2881 4067 
Q 2816 4122 2659 4122 
L 2563 4122 
L 2563 4238 
L 4119 4238 
L 4119 4122 
Q 3981 4119 3868 4084 
Q 3756 4050 3593 3951 
Q 3431 3853 3194 3634 
Q 3125 3572 2559 2994 
L 1913 2350 
z
" transform="scale(0.015625)"/>
       <path id="TimesNewRomanPSMT-5d" d="M 234 4334 
L 1609 4334 
L 1609 -1272 
L 234 -1272 
L 234 -1025 
L 1141 -1025 
L 1141 4088 
L 234 4088 
L 234 4334 
z
" transform="scale(0.015625)"/>
      </defs>
      <use xlink:href="#Cmmi10-55" transform="translate(0 0.421875)"/>
      <use xlink:href="#Cmmi10-41" transform="translate(68.212891 0.421875)"/>
      <use xlink:href="#TimesNewRomanPSMT-20" transform="translate(143.212891 0.421875)"/>
      <use xlink:href="#TimesNewRomanPSMT-5b" transform="translate(168.212891 0.421875)"/>
      <use xlink:href="#TimesNewRomanPSMT-6b" transform="translate(201.513672 0.421875)"/>
      <use xlink:href="#TimesNewRomanPSMT-57" transform="translate(251.513672 0.421875)"/>
      <use xlink:href="#TimesNewRomanPSMT-2f" transform="translate(345.898438 0.421875)"/>
      <use xlink:href="#TimesNewRomanPSMT-4b" transform="translate(373.681641 0.421875)"/>
      <use xlink:href="#TimesNewRomanPSMT-5d" transform="translate(445.898438 0.421875)"/>
     </g>
    </g>
   </g>
   <g id="patch_3">
    <path d="M 36.4 160.22249 
L 36.4 20.14375 
" style="fill: none; stroke: #000000; stroke-width: 0.8; stroke-linejoin: miter; stroke-linecap: square"/>
   </g>
   <g id="patch_4">
    <path d="M 176.47874 160.22249 
L 176.47874 20.14375 
" style="fill: none; stroke: #000000; stroke-width: 0.8; stroke-linejoin: miter; stroke-linecap: square"/>
   </g>
   <g id="patch_5">
    <path d="M 36.4 160.22249 
L 176.47874 160.22249 
" style="fill: none; stroke: #000000; stroke-width: 0.8; stroke-linejoin: miter; stroke-linecap: square"/>
   </g>
   <g id="patch_6">
    <path d="M 36.4 20.14375 
L 176.47874 20.14375 
" style="fill: none; stroke: #000000; stroke-width: 0.8; stroke-linejoin: miter; stroke-linecap: square"/>
   </g>
   <g id="text_14">
    <!-- (a) Chevron -->
    <g transform="translate(82.42062 14.14375) scale(0.1 -0.1)">
     <defs>
      <path id="TimesNewRomanPSMT-28" d="M 1988 -1253 
L 1988 -1369 
Q 1516 -1131 1200 -813 
Q 750 -359 506 256 
Q 263 872 263 1534 
Q 263 2503 741 3301 
Q 1219 4100 1988 4444 
L 1988 4313 
Q 1603 4100 1356 3731 
Q 1109 3363 987 2797 
Q 866 2231 866 1616 
Q 866 947 969 400 
Q 1050 -31 1165 -292 
Q 1281 -553 1476 -793 
Q 1672 -1034 1988 -1253 
z
" transform="scale(0.015625)"/>
      <path id="TimesNewRomanPSMT-61" d="M 1822 413 
Q 1381 72 1269 19 
Q 1100 -59 909 -59 
Q 613 -59 420 144 
Q 228 347 228 678 
Q 228 888 322 1041 
Q 450 1253 767 1440 
Q 1084 1628 1822 1897 
L 1822 2009 
Q 1822 2438 1686 2597 
Q 1550 2756 1291 2756 
Q 1094 2756 978 2650 
Q 859 2544 859 2406 
L 866 2225 
Q 866 2081 792 2003 
Q 719 1925 600 1925 
Q 484 1925 411 2006 
Q 338 2088 338 2228 
Q 338 2497 613 2722 
Q 888 2947 1384 2947 
Q 1766 2947 2009 2819 
Q 2194 2722 2281 2516 
Q 2338 2381 2338 1966 
L 2338 994 
Q 2338 584 2353 492 
Q 2369 400 2405 369 
Q 2441 338 2488 338 
Q 2538 338 2575 359 
Q 2641 400 2828 588 
L 2828 413 
Q 2478 -56 2159 -56 
Q 2006 -56 1915 50 
Q 1825 156 1822 413 
z
M 1822 616 
L 1822 1706 
Q 1350 1519 1213 1441 
Q 966 1303 859 1153 
Q 753 1003 753 825 
Q 753 600 887 451 
Q 1022 303 1197 303 
Q 1434 303 1822 616 
z
" transform="scale(0.015625)"/>
      <path id="TimesNewRomanPSMT-29" d="M 144 4313 
L 144 4444 
Q 619 4209 934 3891 
Q 1381 3434 1625 2820 
Q 1869 2206 1869 1541 
Q 1869 572 1392 -226 
Q 916 -1025 144 -1369 
L 144 -1253 
Q 528 -1038 776 -670 
Q 1025 -303 1145 264 
Q 1266 831 1266 1447 
Q 1266 2113 1163 2663 
Q 1084 3094 967 3353 
Q 850 3613 656 3853 
Q 463 4094 144 4313 
z
" transform="scale(0.015625)"/>
      <path id="TimesNewRomanPSMT-43" d="M 3853 4334 
L 3950 2894 
L 3853 2894 
Q 3659 3541 3300 3825 
Q 2941 4109 2438 4109 
Q 2016 4109 1675 3895 
Q 1334 3681 1139 3212 
Q 944 2744 944 2047 
Q 944 1472 1128 1050 
Q 1313 628 1683 403 
Q 2053 178 2528 178 
Q 2941 178 3256 354 
Q 3572 531 3950 1056 
L 4047 994 
Q 3728 428 3303 165 
Q 2878 -97 2294 -97 
Q 1241 -97 663 684 
Q 231 1266 231 2053 
Q 231 2688 515 3219 
Q 800 3750 1298 4042 
Q 1797 4334 2388 4334 
Q 2847 4334 3294 4109 
Q 3425 4041 3481 4041 
Q 3566 4041 3628 4100 
Q 3709 4184 3744 4334 
L 3853 4334 
z
" transform="scale(0.015625)"/>
      <path id="TimesNewRomanPSMT-68" d="M 1041 4444 
L 1041 2350 
Q 1388 2731 1591 2839 
Q 1794 2947 1997 2947 
Q 2241 2947 2416 2812 
Q 2591 2678 2675 2391 
Q 2734 2191 2734 1659 
L 2734 647 
Q 2734 375 2778 275 
Q 2809 200 2884 156 
Q 2959 113 3159 113 
L 3159 0 
L 1753 0 
L 1753 113 
L 1819 113 
Q 2019 113 2097 173 
Q 2175 234 2206 353 
Q 2216 403 2216 647 
L 2216 1659 
Q 2216 2128 2167 2275 
Q 2119 2422 2012 2495 
Q 1906 2569 1756 2569 
Q 1603 2569 1437 2487 
Q 1272 2406 1041 2159 
L 1041 647 
Q 1041 353 1073 281 
Q 1106 209 1195 161 
Q 1284 113 1503 113 
L 1503 0 
L 84 0 
L 84 113 
Q 275 113 384 172 
Q 447 203 484 290 
Q 522 378 522 647 
L 522 3238 
Q 522 3728 498 3840 
Q 475 3953 426 3993 
Q 378 4034 297 4034 
Q 231 4034 84 3984 
L 41 4094 
L 897 4444 
L 1041 4444 
z
" transform="scale(0.015625)"/>
      <path id="TimesNewRomanPSMT-65" d="M 681 1784 
Q 678 1147 991 784 
Q 1303 422 1725 422 
Q 2006 422 2214 576 
Q 2422 731 2563 1106 
L 2659 1044 
Q 2594 616 2278 264 
Q 1963 -88 1488 -88 
Q 972 -88 605 314 
Q 238 716 238 1394 
Q 238 2128 614 2539 
Q 991 2950 1559 2950 
Q 2041 2950 2350 2633 
Q 2659 2316 2659 1784 
L 681 1784 
z
M 681 1966 
L 2006 1966 
Q 1991 2241 1941 2353 
Q 1863 2528 1708 2628 
Q 1553 2728 1384 2728 
Q 1125 2728 920 2526 
Q 716 2325 681 1966 
z
" transform="scale(0.015625)"/>
      <path id="TimesNewRomanPSMT-76" d="M 53 2863 
L 1400 2863 
L 1400 2747 
L 1313 2747 
Q 1191 2747 1127 2687 
Q 1063 2628 1063 2528 
Q 1063 2419 1128 2269 
L 1794 688 
L 2463 2328 
Q 2534 2503 2534 2594 
Q 2534 2638 2509 2666 
Q 2475 2713 2422 2730 
Q 2369 2747 2206 2747 
L 2206 2863 
L 3141 2863 
L 3141 2747 
Q 2978 2734 2916 2681 
Q 2806 2588 2719 2369 
L 1703 -88 
L 1575 -88 
L 553 2328 
Q 484 2497 421 2570 
Q 359 2644 263 2694 
Q 209 2722 53 2747 
L 53 2863 
z
" transform="scale(0.015625)"/>
      <path id="TimesNewRomanPSMT-72" d="M 1038 2947 
L 1038 2303 
Q 1397 2947 1775 2947 
Q 1947 2947 2059 2842 
Q 2172 2738 2172 2600 
Q 2172 2478 2090 2393 
Q 2009 2309 1897 2309 
Q 1788 2309 1652 2417 
Q 1516 2525 1450 2525 
Q 1394 2525 1328 2463 
Q 1188 2334 1038 2041 
L 1038 669 
Q 1038 431 1097 309 
Q 1138 225 1241 169 
Q 1344 113 1538 113 
L 1538 0 
L 72 0 
L 72 113 
Q 291 113 397 181 
Q 475 231 506 341 
Q 522 394 522 644 
L 522 1753 
Q 522 2253 501 2348 
Q 481 2444 426 2487 
Q 372 2531 291 2531 
Q 194 2531 72 2484 
L 41 2597 
L 906 2947 
L 1038 2947 
z
" transform="scale(0.015625)"/>
      <path id="TimesNewRomanPSMT-6f" d="M 1600 2947 
Q 2250 2947 2644 2453 
Q 2978 2031 2978 1484 
Q 2978 1100 2793 706 
Q 2609 313 2286 112 
Q 1963 -88 1566 -88 
Q 919 -88 538 428 
Q 216 863 216 1403 
Q 216 1797 411 2186 
Q 606 2575 925 2761 
Q 1244 2947 1600 2947 
z
M 1503 2744 
Q 1338 2744 1170 2645 
Q 1003 2547 900 2300 
Q 797 2053 797 1666 
Q 797 1041 1045 587 
Q 1294 134 1700 134 
Q 2003 134 2200 384 
Q 2397 634 2397 1244 
Q 2397 2006 2069 2444 
Q 1847 2744 1503 2744 
z
" transform="scale(0.015625)"/>
      <path id="TimesNewRomanPSMT-6e" d="M 1034 2341 
Q 1538 2947 1994 2947 
Q 2228 2947 2397 2830 
Q 2566 2713 2666 2444 
Q 2734 2256 2734 1869 
L 2734 647 
Q 2734 375 2778 278 
Q 2813 200 2889 156 
Q 2966 113 3172 113 
L 3172 0 
L 1756 0 
L 1756 113 
L 1816 113 
Q 2016 113 2095 173 
Q 2175 234 2206 353 
Q 2219 400 2219 647 
L 2219 1819 
Q 2219 2209 2117 2386 
Q 2016 2563 1775 2563 
Q 1403 2563 1034 2156 
L 1034 647 
Q 1034 356 1069 288 
Q 1113 197 1189 155 
Q 1266 113 1500 113 
L 1500 0 
L 84 0 
L 84 113 
L 147 113 
Q 366 113 442 223 
Q 519 334 519 647 
L 519 1709 
Q 519 2225 495 2337 
Q 472 2450 423 2490 
Q 375 2531 294 2531 
Q 206 2531 84 2484 
L 38 2597 
L 900 2947 
L 1034 2947 
L 1034 2341 
z
" transform="scale(0.015625)"/>
     </defs>
     <use xlink:href="#TimesNewRomanPSMT-28"/>
     <use xlink:href="#TimesNewRomanPSMT-61" transform="translate(33.300781 0)"/>
     <use xlink:href="#TimesNewRomanPSMT-29" transform="translate(77.685547 0)"/>
     <use xlink:href="#TimesNewRomanPSMT-20" transform="translate(110.986328 0)"/>
     <use xlink:href="#TimesNewRomanPSMT-43" transform="translate(135.986328 0)"/>
     <use xlink:href="#TimesNewRomanPSMT-68" transform="translate(202.685547 0)"/>
     <use xlink:href="#TimesNewRomanPSMT-65" transform="translate(252.685547 0)"/>
     <use xlink:href="#TimesNewRomanPSMT-76" transform="translate(297.070312 0)"/>
     <use xlink:href="#TimesNewRomanPSMT-72" transform="translate(347.070312 0)"/>
     <use xlink:href="#TimesNewRomanPSMT-6f" transform="translate(380.371094 0)"/>
     <use xlink:href="#TimesNewRomanPSMT-6e" transform="translate(430.371094 0)"/>
    </g>
   </g>
  </g>
  <g id="axes_2">
   <g id="patch_7">
    <path d="M 193.02874 160.22249 
L 333.10748 160.22249 
L 333.10748 20.14375 
L 193.02874 20.14375 
z
" style="fill: #ffffff"/>
   </g>
   <g id="PathCollection_7">
    <g clip-path="url(#p2555ff2970)">
     <use xlink:href="#mbf180b6f8a" x="221.044488" y="104.907932" style="fill: #ff9999; fill-opacity: 0.8; stroke: #000000; stroke-opacity: 0.8; stroke-width: 0.6"/>
     <use xlink:href="#mbf180b6f8a" x="235.052362" y="104.211829" style="fill: #ff9999; fill-opacity: 0.8; stroke: #000000; stroke-opacity: 0.8; stroke-width: 0.6"/>
     <use xlink:href="#mbf180b6f8a" x="249.060236" y="104.396727" style="fill: #ff9999; fill-opacity: 0.8; stroke: #000000; stroke-opacity: 0.8; stroke-width: 0.6"/>
     <use xlink:href="#mbf180b6f8a" x="277.075984" y="106.140822" style="fill: #ff9999; fill-opacity: 0.8; stroke: #000000; stroke-opacity: 0.8; stroke-width: 0.6"/>
     <use xlink:href="#mbf180b6f8a" x="305.091732" y="103.415742" style="fill: #ff9999; fill-opacity: 0.8; stroke: #000000; stroke-opacity: 0.8; stroke-width: 0.6"/>
    </g>
   </g>
   <g id="PathCollection_8">
    <g clip-path="url(#p2555ff2970)">
     <use xlink:href="#m66befde0d7" x="221.044488" y="37.097117" style="fill: #ff0000; fill-opacity: 0.8; stroke: #000000; stroke-opacity: 0.8; stroke-width: 0.6"/>
     <use xlink:href="#m66befde0d7" x="235.052362" y="37.791269" style="fill: #ff0000; fill-opacity: 0.8; stroke: #000000; stroke-opacity: 0.8; stroke-width: 0.6"/>
     <use xlink:href="#m66befde0d7" x="249.060236" y="38.28657" style="fill: #ff0000; fill-opacity: 0.8; stroke: #000000; stroke-opacity: 0.8; stroke-width: 0.6"/>
     <use xlink:href="#m66befde0d7" x="277.075984" y="39.07024" style="fill: #ff0000; fill-opacity: 0.8; stroke: #000000; stroke-opacity: 0.8; stroke-width: 0.6"/>
     <use xlink:href="#m66befde0d7" x="305.091732" y="40.979202" style="fill: #ff0000; fill-opacity: 0.8; stroke: #000000; stroke-opacity: 0.8; stroke-width: 0.6"/>
    </g>
   </g>
   <g id="PathCollection_9">
    <g clip-path="url(#p2555ff2970)">
     <use xlink:href="#m2be84823ad" x="221.044488" y="108.50374" style="fill: #4e4e4e; fill-opacity: 0.8; stroke: #000000; stroke-opacity: 0.8; stroke-width: 0.6"/>
     <use xlink:href="#m2be84823ad" x="235.052362" y="108.574592" style="fill: #4e4e4e; fill-opacity: 0.8; stroke: #000000; stroke-opacity: 0.8; stroke-width: 0.6"/>
     <use xlink:href="#m2be84823ad" x="249.060236" y="108.663517" style="fill: #4e4e4e; fill-opacity: 0.8; stroke: #000000; stroke-opacity: 0.8; stroke-width: 0.6"/>
     <use xlink:href="#m2be84823ad" x="277.075984" y="110.028799" style="fill: #4e4e4e; fill-opacity: 0.8; stroke: #000000; stroke-opacity: 0.8; stroke-width: 0.6"/>
     <use xlink:href="#m2be84823ad" x="305.091732" y="110.582897" style="fill: #4e4e4e; fill-opacity: 0.8; stroke: #000000; stroke-opacity: 0.8; stroke-width: 0.6"/>
    </g>
   </g>
   <g id="PathCollection_10">
    <g clip-path="url(#p2555ff2970)">
     <use xlink:href="#m5f4d4d2871" x="221.044488" y="44.8624" style="fill-opacity: 0.8; stroke: #000000; stroke-opacity: 0.8; stroke-width: 0.6"/>
     <use xlink:href="#m5f4d4d2871" x="235.052362" y="45.557379" style="fill-opacity: 0.8; stroke: #000000; stroke-opacity: 0.8; stroke-width: 0.6"/>
     <use xlink:href="#m5f4d4d2871" x="249.060236" y="43.338175" style="fill-opacity: 0.8; stroke: #000000; stroke-opacity: 0.8; stroke-width: 0.6"/>
     <use xlink:href="#m5f4d4d2871" x="277.075984" y="44.488617" style="fill-opacity: 0.8; stroke: #000000; stroke-opacity: 0.8; stroke-width: 0.6"/>
     <use xlink:href="#m5f4d4d2871" x="305.091732" y="44.99141" style="fill-opacity: 0.8; stroke: #000000; stroke-opacity: 0.8; stroke-width: 0.6"/>
    </g>
   </g>
   <g id="PathCollection_11">
    <g clip-path="url(#p2555ff2970)">
     <use xlink:href="#maed2c19d13" x="221.044488" y="110.938067" style="fill: #9999ff; fill-opacity: 0.8; stroke: #000000; stroke-opacity: 0.8; stroke-width: 0.6"/>
     <use xlink:href="#maed2c19d13" x="235.052362" y="111.205273" style="fill: #9999ff; fill-opacity: 0.8; stroke: #000000; stroke-opacity: 0.8; stroke-width: 0.6"/>
     <use xlink:href="#maed2c19d13" x="249.060236" y="111.632274" style="fill: #9999ff; fill-opacity: 0.8; stroke: #000000; stroke-opacity: 0.8; stroke-width: 0.6"/>
     <use xlink:href="#maed2c19d13" x="277.075984" y="113.196584" style="fill: #9999ff; fill-opacity: 0.8; stroke: #000000; stroke-opacity: 0.8; stroke-width: 0.6"/>
     <use xlink:href="#maed2c19d13" x="305.091732" y="112.457427" style="fill: #9999ff; fill-opacity: 0.8; stroke: #000000; stroke-opacity: 0.8; stroke-width: 0.6"/>
    </g>
   </g>
   <g id="PathCollection_12">
    <g clip-path="url(#p2555ff2970)">
     <use xlink:href="#m1cf58b764b" x="221.044488" y="51.247421" style="fill: #0000ff; fill-opacity: 0.8; stroke: #000000; stroke-opacity: 0.8; stroke-width: 0.6"/>
     <use xlink:href="#m1cf58b764b" x="235.052362" y="48.133497" style="fill: #0000ff; fill-opacity: 0.8; stroke: #000000; stroke-opacity: 0.8; stroke-width: 0.6"/>
     <use xlink:href="#m1cf58b764b" x="249.060236" y="49.64024" style="fill: #0000ff; fill-opacity: 0.8; stroke: #000000; stroke-opacity: 0.8; stroke-width: 0.6"/>
     <use xlink:href="#m1cf58b764b" x="277.075984" y="49.094595" style="fill: #0000ff; fill-opacity: 0.8; stroke: #000000; stroke-opacity: 0.8; stroke-width: 0.6"/>
     <use xlink:href="#m1cf58b764b" x="305.091732" y="49.967741" style="fill: #0000ff; fill-opacity: 0.8; stroke: #000000; stroke-opacity: 0.8; stroke-width: 0.6"/>
    </g>
   </g>
   <g id="matplotlib.axis_3">
    <g id="xtick_7">
     <g id="line2d_23">
      <path d="M 193.02874 160.22249 
L 193.02874 20.14375 
" clip-path="url(#p2555ff2970)" style="fill: none; stroke: #808080; stroke-opacity: 0.3; stroke-width: 0.4; stroke-linecap: square"/>
     </g>
     <g id="line2d_24">
      <g>
       <use xlink:href="#mec8b08eae8" x="193.02874" y="160.22249" style="stroke: #000000; stroke-width: 0.8"/>
      </g>
     </g>
     <g id="text_15">
      <!-- −0.5 -->
      <g transform="translate(184.866162 173.471865) scale(0.09 -0.09)">
       <use xlink:href="#TimesNewRomanPSMT-2212"/>
       <use xlink:href="#TimesNewRomanPSMT-30" transform="translate(56.396484 0)"/>
       <use xlink:href="#TimesNewRomanPSMT-2e" transform="translate(106.396484 0)"/>
       <use xlink:href="#TimesNewRomanPSMT-35" transform="translate(131.396484 0)"/>
      </g>
     </g>
    </g>
    <g id="xtick_8">
     <g id="line2d_25">
      <path d="M 221.044488 160.22249 
L 221.044488 20.14375 
" clip-path="url(#p2555ff2970)" style="fill: none; stroke: #808080; stroke-opacity: 0.3; stroke-width: 0.4; stroke-linecap: square"/>
     </g>
     <g id="line2d_26">
      <g>
       <use xlink:href="#mec8b08eae8" x="221.044488" y="160.22249" style="stroke: #000000; stroke-width: 0.8"/>
      </g>
     </g>
     <g id="text_16">
      <!-- 0.0 -->
      <g transform="translate(215.419488 173.471865) scale(0.09 -0.09)">
       <use xlink:href="#TimesNewRomanPSMT-30"/>
       <use xlink:href="#TimesNewRomanPSMT-2e" transform="translate(50 0)"/>
       <use xlink:href="#TimesNewRomanPSMT-30" transform="translate(75 0)"/>
      </g>
     </g>
    </g>
    <g id="xtick_9">
     <g id="line2d_27">
      <path d="M 249.060236 160.22249 
L 249.060236 20.14375 
" clip-path="url(#p2555ff2970)" style="fill: none; stroke: #808080; stroke-opacity: 0.3; stroke-width: 0.4; stroke-linecap: square"/>
     </g>
     <g id="line2d_28">
      <g>
       <use xlink:href="#mec8b08eae8" x="249.060236" y="160.22249" style="stroke: #000000; stroke-width: 0.8"/>
      </g>
     </g>
     <g id="text_17">
      <!-- 0.5 -->
      <g transform="translate(243.435236 173.471865) scale(0.09 -0.09)">
       <use xlink:href="#TimesNewRomanPSMT-30"/>
       <use xlink:href="#TimesNewRomanPSMT-2e" transform="translate(50 0)"/>
       <use xlink:href="#TimesNewRomanPSMT-35" transform="translate(75 0)"/>
      </g>
     </g>
    </g>
    <g id="xtick_10">
     <g id="line2d_29">
      <path d="M 277.075984 160.22249 
L 277.075984 20.14375 
" clip-path="url(#p2555ff2970)" style="fill: none; stroke: #808080; stroke-opacity: 0.3; stroke-width: 0.4; stroke-linecap: square"/>
     </g>
     <g id="line2d_30">
      <g>
       <use xlink:href="#mec8b08eae8" x="277.075984" y="160.22249" style="stroke: #000000; stroke-width: 0.8"/>
      </g>
     </g>
     <g id="text_18">
      <!-- 1.0 -->
      <g transform="translate(271.450984 173.471865) scale(0.09 -0.09)">
       <use xlink:href="#TimesNewRomanPSMT-31"/>
       <use xlink:href="#TimesNewRomanPSMT-2e" transform="translate(50 0)"/>
       <use xlink:href="#TimesNewRomanPSMT-30" transform="translate(75 0)"/>
      </g>
     </g>
    </g>
    <g id="xtick_11">
     <g id="line2d_31">
      <path d="M 305.091732 160.22249 
L 305.091732 20.14375 
" clip-path="url(#p2555ff2970)" style="fill: none; stroke: #808080; stroke-opacity: 0.3; stroke-width: 0.4; stroke-linecap: square"/>
     </g>
     <g id="line2d_32">
      <g>
       <use xlink:href="#mec8b08eae8" x="305.091732" y="160.22249" style="stroke: #000000; stroke-width: 0.8"/>
      </g>
     </g>
     <g id="text_19">
      <!-- 1.5 -->
      <g transform="translate(299.466732 173.471865) scale(0.09 -0.09)">
       <use xlink:href="#TimesNewRomanPSMT-31"/>
       <use xlink:href="#TimesNewRomanPSMT-2e" transform="translate(50 0)"/>
       <use xlink:href="#TimesNewRomanPSMT-35" transform="translate(75 0)"/>
      </g>
     </g>
    </g>
    <g id="xtick_12">
     <g id="line2d_33">
      <path d="M 333.10748 160.22249 
L 333.10748 20.14375 
" clip-path="url(#p2555ff2970)" style="fill: none; stroke: #808080; stroke-opacity: 0.3; stroke-width: 0.4; stroke-linecap: square"/>
     </g>
     <g id="line2d_34">
      <g>
       <use xlink:href="#mec8b08eae8" x="333.10748" y="160.22249" style="stroke: #000000; stroke-width: 0.8"/>
      </g>
     </g>
     <g id="text_20">
      <!-- 2.0 -->
      <g transform="translate(327.48248 173.471865) scale(0.09 -0.09)">
       <use xlink:href="#TimesNewRomanPSMT-32"/>
       <use xlink:href="#TimesNewRomanPSMT-2e" transform="translate(50 0)"/>
       <use xlink:href="#TimesNewRomanPSMT-30" transform="translate(75 0)"/>
      </g>
     </g>
    </g>
    <g id="text_21">
     <!-- $\Delta P_{in}$ -->
     <g transform="translate(252.06811 186.340771) scale(0.1 -0.1)">
      <use xlink:href="#Cmr10-a2" transform="translate(0 0.421875)"/>
      <use xlink:href="#Cmmi10-50" transform="translate(83.300781 0.421875)"/>
      <use xlink:href="#Cmmi10-69" transform="translate(147.509766 -16.584375) scale(0.7)"/>
      <use xlink:href="#Cmmi10-6e" transform="translate(171.606445 -16.584375) scale(0.7)"/>
     </g>
    </g>
   </g>
   <g id="matplotlib.axis_4">
    <g id="ytick_6">
     <g id="line2d_35">
      <path d="M 193.02874 160.22249 
L 333.10748 160.22249 
" clip-path="url(#p2555ff2970)" style="fill: none; stroke: #808080; stroke-opacity: 0.3; stroke-width: 0.4; stroke-linecap: square"/>
     </g>
     <g id="line2d_36">
      <g>
       <use xlink:href="#mb2430aa8ff" x="193.02874" y="160.22249" style="stroke: #000000; stroke-width: 0.8"/>
      </g>
     </g>
    </g>
    <g id="ytick_7">
     <g id="line2d_37">
      <path d="M 193.02874 125.202805 
L 333.10748 125.202805 
" clip-path="url(#p2555ff2970)" style="fill: none; stroke: #808080; stroke-opacity: 0.3; stroke-width: 0.4; stroke-linecap: square"/>
     </g>
     <g id="line2d_38">
      <g>
       <use xlink:href="#mb2430aa8ff" x="193.02874" y="125.202805" style="stroke: #000000; stroke-width: 0.8"/>
      </g>
     </g>
    </g>
    <g id="ytick_8">
     <g id="line2d_39">
      <path d="M 193.02874 90.18312 
L 333.10748 90.18312 
" clip-path="url(#p2555ff2970)" style="fill: none; stroke: #808080; stroke-opacity: 0.3; stroke-width: 0.4; stroke-linecap: square"/>
     </g>
     <g id="line2d_40">
      <g>
       <use xlink:href="#mb2430aa8ff" x="193.02874" y="90.18312" style="stroke: #000000; stroke-width: 0.8"/>
      </g>
     </g>
    </g>
    <g id="ytick_9">
     <g id="line2d_41">
      <path d="M 193.02874 55.163435 
L 333.10748 55.163435 
" clip-path="url(#p2555ff2970)" style="fill: none; stroke: #808080; stroke-opacity: 0.3; stroke-width: 0.4; stroke-linecap: square"/>
     </g>
     <g id="line2d_42">
      <g>
       <use xlink:href="#mb2430aa8ff" x="193.02874" y="55.163435" style="stroke: #000000; stroke-width: 0.8"/>
      </g>
     </g>
    </g>
    <g id="ytick_10">
     <g id="line2d_43">
      <path d="M 193.02874 20.14375 
L 333.10748 20.14375 
" clip-path="url(#p2555ff2970)" style="fill: none; stroke: #808080; stroke-opacity: 0.3; stroke-width: 0.4; stroke-linecap: square"/>
     </g>
     <g id="line2d_44">
      <g>
       <use xlink:href="#mb2430aa8ff" x="193.02874" y="20.14375" style="stroke: #000000; stroke-width: 0.8"/>
      </g>
     </g>
    </g>
   </g>
   <g id="patch_8">
    <path d="M 193.02874 160.22249 
L 193.02874 20.14375 
" style="fill: none; stroke: #000000; stroke-width: 0.8; stroke-linejoin: miter; stroke-linecap: square"/>
   </g>
   <g id="patch_9">
    <path d="M 333.10748 160.22249 
L 333.10748 20.14375 
" style="fill: none; stroke: #000000; stroke-width: 0.8; stroke-linejoin: miter; stroke-linecap: square"/>
   </g>
   <g id="patch_10">
    <path d="M 193.02874 160.22249 
L 333.10748 160.22249 
" style="fill: none; stroke: #000000; stroke-width: 0.8; stroke-linejoin: miter; stroke-linecap: square"/>
   </g>
   <g id="patch_11">
    <path d="M 193.02874 20.14375 
L 333.10748 20.14375 
" style="fill: none; stroke: #000000; stroke-width: 0.8; stroke-linejoin: miter; stroke-linecap: square"/>
   </g>
   <g id="text_22">
    <!-- (b) Zigzag -->
    <g transform="translate(242.106391 14.14375) scale(0.1 -0.1)">
     <defs>
      <path id="TimesNewRomanPSMT-62" d="M 984 2369 
Q 1400 2947 1881 2947 
Q 2322 2947 2650 2570 
Q 2978 2194 2978 1541 
Q 2978 778 2472 313 
Q 2038 -88 1503 -88 
Q 1253 -88 995 3 
Q 738 94 469 275 
L 469 3241 
Q 469 3728 445 3840 
Q 422 3953 372 3993 
Q 322 4034 247 4034 
Q 159 4034 28 3984 
L -16 4094 
L 844 4444 
L 984 4444 
L 984 2369 
z
M 984 2169 
L 984 456 
Q 1144 300 1314 220 
Q 1484 141 1663 141 
Q 1947 141 2192 453 
Q 2438 766 2438 1363 
Q 2438 1913 2192 2208 
Q 1947 2503 1634 2503 
Q 1469 2503 1303 2419 
Q 1178 2356 984 2169 
z
" transform="scale(0.015625)"/>
      <path id="TimesNewRomanPSMT-5a" d="M 3681 4238 
L 897 256 
L 2634 256 
Q 3034 256 3248 431 
Q 3463 606 3628 1141 
L 3731 1122 
L 3531 0 
L 81 0 
L 81 116 
L 2800 3984 
L 1444 3984 
Q 1106 3984 954 3911 
Q 803 3838 723 3698 
Q 644 3559 578 3178 
L 459 3178 
L 547 4238 
L 3681 4238 
z
" transform="scale(0.015625)"/>
      <path id="TimesNewRomanPSMT-69" d="M 928 4444 
Q 1059 4444 1151 4351 
Q 1244 4259 1244 4128 
Q 1244 3997 1151 3903 
Q 1059 3809 928 3809 
Q 797 3809 703 3903 
Q 609 3997 609 4128 
Q 609 4259 701 4351 
Q 794 4444 928 4444 
z
M 1188 2947 
L 1188 647 
Q 1188 378 1227 289 
Q 1266 200 1342 156 
Q 1419 113 1622 113 
L 1622 0 
L 231 0 
L 231 113 
Q 441 113 512 153 
Q 584 194 626 287 
Q 669 381 669 647 
L 669 1750 
Q 669 2216 641 2353 
Q 619 2453 572 2492 
Q 525 2531 444 2531 
Q 356 2531 231 2484 
L 188 2597 
L 1050 2947 
L 1188 2947 
z
" transform="scale(0.015625)"/>
      <path id="TimesNewRomanPSMT-67" d="M 966 1044 
Q 703 1172 562 1401 
Q 422 1631 422 1909 
Q 422 2334 742 2640 
Q 1063 2947 1563 2947 
Q 1972 2947 2272 2747 
L 2878 2747 
Q 3013 2747 3034 2739 
Q 3056 2731 3066 2713 
Q 3084 2684 3084 2613 
Q 3084 2531 3069 2500 
Q 3059 2484 3036 2475 
Q 3013 2466 2878 2466 
L 2506 2466 
Q 2681 2241 2681 1891 
Q 2681 1491 2375 1206 
Q 2069 922 1553 922 
Q 1341 922 1119 984 
Q 981 866 932 777 
Q 884 688 884 625 
Q 884 572 936 522 
Q 988 472 1138 450 
Q 1225 438 1575 428 
Q 2219 413 2409 384 
Q 2700 344 2873 169 
Q 3047 -6 3047 -263 
Q 3047 -616 2716 -925 
Q 2228 -1381 1444 -1381 
Q 841 -1381 425 -1109 
Q 191 -953 191 -784 
Q 191 -709 225 -634 
Q 278 -519 444 -313 
Q 466 -284 763 25 
Q 600 122 533 198 
Q 466 275 466 372 
Q 466 481 555 628 
Q 644 775 966 1044 
z
M 1509 2797 
Q 1278 2797 1122 2612 
Q 966 2428 966 2047 
Q 966 1553 1178 1281 
Q 1341 1075 1591 1075 
Q 1828 1075 1981 1253 
Q 2134 1431 2134 1813 
Q 2134 2309 1919 2591 
Q 1759 2797 1509 2797 
z
M 934 0 
Q 788 -159 713 -296 
Q 638 -434 638 -550 
Q 638 -700 819 -813 
Q 1131 -1006 1722 -1006 
Q 2284 -1006 2551 -807 
Q 2819 -609 2819 -384 
Q 2819 -222 2659 -153 
Q 2497 -84 2016 -72 
Q 1313 -53 934 0 
z
" transform="scale(0.015625)"/>
      <path id="TimesNewRomanPSMT-7a" d="M 2688 878 
L 2653 0 
L 128 0 
L 128 113 
L 2028 2644 
L 1091 2644 
Q 788 2644 694 2605 
Q 600 2566 541 2456 
Q 456 2300 444 2069 
L 319 2069 
L 338 2863 
L 2738 2863 
L 2738 2747 
L 819 209 
L 1863 209 
Q 2191 209 2308 264 
Q 2425 319 2497 456 
Q 2547 556 2581 878 
L 2688 878 
z
" transform="scale(0.015625)"/>
     </defs>
     <use xlink:href="#TimesNewRomanPSMT-28"/>
     <use xlink:href="#TimesNewRomanPSMT-62" transform="translate(33.300781 0)"/>
     <use xlink:href="#TimesNewRomanPSMT-29" transform="translate(83.300781 0)"/>
     <use xlink:href="#TimesNewRomanPSMT-20" transform="translate(116.601562 0)"/>
     <use xlink:href="#TimesNewRomanPSMT-5a" transform="translate(141.601562 0)"/>
     <use xlink:href="#TimesNewRomanPSMT-69" transform="translate(202.685547 0)"/>
     <use xlink:href="#TimesNewRomanPSMT-67" transform="translate(230.46875 0)"/>
     <use xlink:href="#TimesNewRomanPSMT-7a" transform="translate(280.46875 0)"/>
     <use xlink:href="#TimesNewRomanPSMT-61" transform="translate(324.853516 0)"/>
     <use xlink:href="#TimesNewRomanPSMT-67" transform="translate(369.238281 0)"/>
    </g>
   </g>
  </g>
  <g id="axes_3">
   <g id="patch_12">
    <path d="M 349.65748 160.22249 
L 489.73622 160.22249 
L 489.73622 20.14375 
L 349.65748 20.14375 
z
" style="fill: #ffffff"/>
   </g>
   <g id="PathCollection_13">
    <g clip-path="url(#p094c6bb40d)">
     <use xlink:href="#mbf180b6f8a" x="377.673228" y="136.795168" style="fill: #ff9999; fill-opacity: 0.8; stroke: #000000; stroke-opacity: 0.8; stroke-width: 0.6"/>
     <use xlink:href="#mbf180b6f8a" x="391.681102" y="133.287572" style="fill: #ff9999; fill-opacity: 0.8; stroke: #000000; stroke-opacity: 0.8; stroke-width: 0.6"/>
     <use xlink:href="#mbf180b6f8a" x="405.688976" y="134.315353" style="fill: #ff9999; fill-opacity: 0.8; stroke: #000000; stroke-opacity: 0.8; stroke-width: 0.6"/>
     <use xlink:href="#mbf180b6f8a" x="433.704724" y="135.060955" style="fill: #ff9999; fill-opacity: 0.8; stroke: #000000; stroke-opacity: 0.8; stroke-width: 0.6"/>
     <use xlink:href="#mbf180b6f8a" x="461.720472" y="135.377271" style="fill: #ff9999; fill-opacity: 0.8; stroke: #000000; stroke-opacity: 0.8; stroke-width: 0.6"/>
    </g>
   </g>
   <g id="PathCollection_14">
    <g clip-path="url(#p094c6bb40d)">
     <use xlink:href="#m66befde0d7" x="377.673228" y="79.678297" style="fill: #ff0000; fill-opacity: 0.8; stroke: #000000; stroke-opacity: 0.8; stroke-width: 0.6"/>
     <use xlink:href="#m66befde0d7" x="391.681102" y="80.929084" style="fill: #ff0000; fill-opacity: 0.8; stroke: #000000; stroke-opacity: 0.8; stroke-width: 0.6"/>
     <use xlink:href="#m66befde0d7" x="405.688976" y="80.381461" style="fill: #ff0000; fill-opacity: 0.8; stroke: #000000; stroke-opacity: 0.8; stroke-width: 0.6"/>
     <use xlink:href="#m66befde0d7" x="433.704724" y="81.099621" style="fill: #ff0000; fill-opacity: 0.8; stroke: #000000; stroke-opacity: 0.8; stroke-width: 0.6"/>
     <use xlink:href="#m66befde0d7" x="461.720472" y="81.509574" style="fill: #ff0000; fill-opacity: 0.8; stroke: #000000; stroke-opacity: 0.8; stroke-width: 0.6"/>
    </g>
   </g>
   <g id="PathCollection_15">
    <g clip-path="url(#p094c6bb40d)">
     <use xlink:href="#m2be84823ad" x="377.673228" y="136.487093" style="fill: #4e4e4e; fill-opacity: 0.8; stroke: #000000; stroke-opacity: 0.8; stroke-width: 0.6"/>
     <use xlink:href="#m2be84823ad" x="391.681102" y="135.765775" style="fill: #4e4e4e; fill-opacity: 0.8; stroke: #000000; stroke-opacity: 0.8; stroke-width: 0.6"/>
     <use xlink:href="#m2be84823ad" x="405.688976" y="135.682757" style="fill: #4e4e4e; fill-opacity: 0.8; stroke: #000000; stroke-opacity: 0.8; stroke-width: 0.6"/>
     <use xlink:href="#m2be84823ad" x="433.704724" y="136.939536" style="fill: #4e4e4e; fill-opacity: 0.8; stroke: #000000; stroke-opacity: 0.8; stroke-width: 0.6"/>
     <use xlink:href="#m2be84823ad" x="461.720472" y="137.676277" style="fill: #4e4e4e; fill-opacity: 0.8; stroke: #000000; stroke-opacity: 0.8; stroke-width: 0.6"/>
    </g>
   </g>
   <g id="PathCollection_16">
    <g clip-path="url(#p094c6bb40d)">
     <use xlink:href="#m5f4d4d2871" x="377.673228" y="86.028998" style="fill-opacity: 0.8; stroke: #000000; stroke-opacity: 0.8; stroke-width: 0.6"/>
     <use xlink:href="#m5f4d4d2871" x="391.681102" y="86.136002" style="fill-opacity: 0.8; stroke: #000000; stroke-opacity: 0.8; stroke-width: 0.6"/>
     <use xlink:href="#m5f4d4d2871" x="405.688976" y="86.540817" style="fill-opacity: 0.8; stroke: #000000; stroke-opacity: 0.8; stroke-width: 0.6"/>
     <use xlink:href="#m5f4d4d2871" x="433.704724" y="85.984387" style="fill-opacity: 0.8; stroke: #000000; stroke-opacity: 0.8; stroke-width: 0.6"/>
     <use xlink:href="#m5f4d4d2871" x="461.720472" y="85.978158" style="fill-opacity: 0.8; stroke: #000000; stroke-opacity: 0.8; stroke-width: 0.6"/>
    </g>
   </g>
   <g id="PathCollection_17">
    <g clip-path="url(#p094c6bb40d)">
     <use xlink:href="#maed2c19d13" x="377.673228" y="136.748941" style="fill: #9999ff; fill-opacity: 0.8; stroke: #000000; stroke-opacity: 0.8; stroke-width: 0.6"/>
     <use xlink:href="#maed2c19d13" x="391.681102" y="137.279676" style="fill: #9999ff; fill-opacity: 0.8; stroke: #000000; stroke-opacity: 0.8; stroke-width: 0.6"/>
     <use xlink:href="#maed2c19d13" x="405.688976" y="138.080618" style="fill: #9999ff; fill-opacity: 0.8; stroke: #000000; stroke-opacity: 0.8; stroke-width: 0.6"/>
     <use xlink:href="#maed2c19d13" x="433.704724" y="137.870886" style="fill: #9999ff; fill-opacity: 0.8; stroke: #000000; stroke-opacity: 0.8; stroke-width: 0.6"/>
     <use xlink:href="#maed2c19d13" x="461.720472" y="143.825533" style="fill: #9999ff; fill-opacity: 0.8; stroke: #000000; stroke-opacity: 0.8; stroke-width: 0.6"/>
    </g>
   </g>
   <g id="PathCollection_18">
    <g clip-path="url(#p094c6bb40d)">
     <use xlink:href="#m1cf58b764b" x="377.673228" y="89.778325" style="fill: #0000ff; fill-opacity: 0.8; stroke: #000000; stroke-opacity: 0.8; stroke-width: 0.6"/>
     <use xlink:href="#m1cf58b764b" x="391.681102" y="88.859138" style="fill: #0000ff; fill-opacity: 0.8; stroke: #000000; stroke-opacity: 0.8; stroke-width: 0.6"/>
     <use xlink:href="#m1cf58b764b" x="405.688976" y="88.028581" style="fill: #0000ff; fill-opacity: 0.8; stroke: #000000; stroke-opacity: 0.8; stroke-width: 0.6"/>
     <use xlink:href="#m1cf58b764b" x="433.704724" y="89.613707" style="fill: #0000ff; fill-opacity: 0.8; stroke: #000000; stroke-opacity: 0.8; stroke-width: 0.6"/>
     <use xlink:href="#m1cf58b764b" x="461.720472" y="88.489203" style="fill: #0000ff; fill-opacity: 0.8; stroke: #000000; stroke-opacity: 0.8; stroke-width: 0.6"/>
    </g>
   </g>
   <g id="matplotlib.axis_5">
    <g id="xtick_13">
     <g id="line2d_45">
      <path d="M 349.65748 160.22249 
L 349.65748 20.14375 
" clip-path="url(#p094c6bb40d)" style="fill: none; stroke: #808080; stroke-opacity: 0.3; stroke-width: 0.4; stroke-linecap: square"/>
     </g>
     <g id="line2d_46">
      <g>
       <use xlink:href="#mec8b08eae8" x="349.65748" y="160.22249" style="stroke: #000000; stroke-width: 0.8"/>
      </g>
     </g>
     <g id="text_23">
      <!-- −0.5 -->
      <g transform="translate(341.494902 173.471865) scale(0.09 -0.09)">
       <use xlink:href="#TimesNewRomanPSMT-2212"/>
       <use xlink:href="#TimesNewRomanPSMT-30" transform="translate(56.396484 0)"/>
       <use xlink:href="#TimesNewRomanPSMT-2e" transform="translate(106.396484 0)"/>
       <use xlink:href="#TimesNewRomanPSMT-35" transform="translate(131.396484 0)"/>
      </g>
     </g>
    </g>
    <g id="xtick_14">
     <g id="line2d_47">
      <path d="M 377.673228 160.22249 
L 377.673228 20.14375 
" clip-path="url(#p094c6bb40d)" style="fill: none; stroke: #808080; stroke-opacity: 0.3; stroke-width: 0.4; stroke-linecap: square"/>
     </g>
     <g id="line2d_48">
      <g>
       <use xlink:href="#mec8b08eae8" x="377.673228" y="160.22249" style="stroke: #000000; stroke-width: 0.8"/>
      </g>
     </g>
     <g id="text_24">
      <!-- 0.0 -->
      <g transform="translate(372.048228 173.471865) scale(0.09 -0.09)">
       <use xlink:href="#TimesNewRomanPSMT-30"/>
       <use xlink:href="#TimesNewRomanPSMT-2e" transform="translate(50 0)"/>
       <use xlink:href="#TimesNewRomanPSMT-30" transform="translate(75 0)"/>
      </g>
     </g>
    </g>
    <g id="xtick_15">
     <g id="line2d_49">
      <path d="M 405.688976 160.22249 
L 405.688976 20.14375 
" clip-path="url(#p094c6bb40d)" style="fill: none; stroke: #808080; stroke-opacity: 0.3; stroke-width: 0.4; stroke-linecap: square"/>
     </g>
     <g id="line2d_50">
      <g>
       <use xlink:href="#mec8b08eae8" x="405.688976" y="160.22249" style="stroke: #000000; stroke-width: 0.8"/>
      </g>
     </g>
     <g id="text_25">
      <!-- 0.5 -->
      <g transform="translate(400.063976 173.471865) scale(0.09 -0.09)">
       <use xlink:href="#TimesNewRomanPSMT-30"/>
       <use xlink:href="#TimesNewRomanPSMT-2e" transform="translate(50 0)"/>
       <use xlink:href="#TimesNewRomanPSMT-35" transform="translate(75 0)"/>
      </g>
     </g>
    </g>
    <g id="xtick_16">
     <g id="line2d_51">
      <path d="M 433.704724 160.22249 
L 433.704724 20.14375 
" clip-path="url(#p094c6bb40d)" style="fill: none; stroke: #808080; stroke-opacity: 0.3; stroke-width: 0.4; stroke-linecap: square"/>
     </g>
     <g id="line2d_52">
      <g>
       <use xlink:href="#mec8b08eae8" x="433.704724" y="160.22249" style="stroke: #000000; stroke-width: 0.8"/>
      </g>
     </g>
     <g id="text_26">
      <!-- 1.0 -->
      <g transform="translate(428.079724 173.471865) scale(0.09 -0.09)">
       <use xlink:href="#TimesNewRomanPSMT-31"/>
       <use xlink:href="#TimesNewRomanPSMT-2e" transform="translate(50 0)"/>
       <use xlink:href="#TimesNewRomanPSMT-30" transform="translate(75 0)"/>
      </g>
     </g>
    </g>
    <g id="xtick_17">
     <g id="line2d_53">
      <path d="M 461.720472 160.22249 
L 461.720472 20.14375 
" clip-path="url(#p094c6bb40d)" style="fill: none; stroke: #808080; stroke-opacity: 0.3; stroke-width: 0.4; stroke-linecap: square"/>
     </g>
     <g id="line2d_54">
      <g>
       <use xlink:href="#mec8b08eae8" x="461.720472" y="160.22249" style="stroke: #000000; stroke-width: 0.8"/>
      </g>
     </g>
     <g id="text_27">
      <!-- 1.5 -->
      <g transform="translate(456.095472 173.471865) scale(0.09 -0.09)">
       <use xlink:href="#TimesNewRomanPSMT-31"/>
       <use xlink:href="#TimesNewRomanPSMT-2e" transform="translate(50 0)"/>
       <use xlink:href="#TimesNewRomanPSMT-35" transform="translate(75 0)"/>
      </g>
     </g>
    </g>
    <g id="xtick_18">
     <g id="line2d_55">
      <path d="M 489.73622 160.22249 
L 489.73622 20.14375 
" clip-path="url(#p094c6bb40d)" style="fill: none; stroke: #808080; stroke-opacity: 0.3; stroke-width: 0.4; stroke-linecap: square"/>
     </g>
     <g id="line2d_56">
      <g>
       <use xlink:href="#mec8b08eae8" x="489.73622" y="160.22249" style="stroke: #000000; stroke-width: 0.8"/>
      </g>
     </g>
     <g id="text_28">
      <!-- 2.0 -->
      <g transform="translate(484.11122 173.471865) scale(0.09 -0.09)">
       <use xlink:href="#TimesNewRomanPSMT-32"/>
       <use xlink:href="#TimesNewRomanPSMT-2e" transform="translate(50 0)"/>
       <use xlink:href="#TimesNewRomanPSMT-30" transform="translate(75 0)"/>
      </g>
     </g>
    </g>
    <g id="text_29">
     <!-- $\Delta P_{in}$ -->
     <g transform="translate(408.69685 186.340771) scale(0.1 -0.1)">
      <use xlink:href="#Cmr10-a2" transform="translate(0 0.421875)"/>
      <use xlink:href="#Cmmi10-50" transform="translate(83.300781 0.421875)"/>
      <use xlink:href="#Cmmi10-69" transform="translate(147.509766 -16.584375) scale(0.7)"/>
      <use xlink:href="#Cmmi10-6e" transform="translate(171.606445 -16.584375) scale(0.7)"/>
     </g>
    </g>
   </g>
   <g id="matplotlib.axis_6">
    <g id="ytick_11">
     <g id="line2d_57">
      <path d="M 349.65748 160.22249 
L 489.73622 160.22249 
" clip-path="url(#p094c6bb40d)" style="fill: none; stroke: #808080; stroke-opacity: 0.3; stroke-width: 0.4; stroke-linecap: square"/>
     </g>
     <g id="line2d_58">
      <g>
       <use xlink:href="#mb2430aa8ff" x="349.65748" y="160.22249" style="stroke: #000000; stroke-width: 0.8"/>
      </g>
     </g>
    </g>
    <g id="ytick_12">
     <g id="line2d_59">
      <path d="M 349.65748 125.202805 
L 489.73622 125.202805 
" clip-path="url(#p094c6bb40d)" style="fill: none; stroke: #808080; stroke-opacity: 0.3; stroke-width: 0.4; stroke-linecap: square"/>
     </g>
     <g id="line2d_60">
      <g>
       <use xlink:href="#mb2430aa8ff" x="349.65748" y="125.202805" style="stroke: #000000; stroke-width: 0.8"/>
      </g>
     </g>
    </g>
    <g id="ytick_13">
     <g id="line2d_61">
      <path d="M 349.65748 90.18312 
L 489.73622 90.18312 
" clip-path="url(#p094c6bb40d)" style="fill: none; stroke: #808080; stroke-opacity: 0.3; stroke-width: 0.4; stroke-linecap: square"/>
     </g>
     <g id="line2d_62">
      <g>
       <use xlink:href="#mb2430aa8ff" x="349.65748" y="90.18312" style="stroke: #000000; stroke-width: 0.8"/>
      </g>
     </g>
    </g>
    <g id="ytick_14">
     <g id="line2d_63">
      <path d="M 349.65748 55.163435 
L 489.73622 55.163435 
" clip-path="url(#p094c6bb40d)" style="fill: none; stroke: #808080; stroke-opacity: 0.3; stroke-width: 0.4; stroke-linecap: square"/>
     </g>
     <g id="line2d_64">
      <g>
       <use xlink:href="#mb2430aa8ff" x="349.65748" y="55.163435" style="stroke: #000000; stroke-width: 0.8"/>
      </g>
     </g>
    </g>
    <g id="ytick_15">
     <g id="line2d_65">
      <path d="M 349.65748 20.14375 
L 489.73622 20.14375 
" clip-path="url(#p094c6bb40d)" style="fill: none; stroke: #808080; stroke-opacity: 0.3; stroke-width: 0.4; stroke-linecap: square"/>
     </g>
     <g id="line2d_66">
      <g>
       <use xlink:href="#mb2430aa8ff" x="349.65748" y="20.14375" style="stroke: #000000; stroke-width: 0.8"/>
      </g>
     </g>
    </g>
   </g>
   <g id="patch_13">
    <path d="M 349.65748 160.22249 
L 349.65748 20.14375 
" style="fill: none; stroke: #000000; stroke-width: 0.8; stroke-linejoin: miter; stroke-linecap: square"/>
   </g>
   <g id="patch_14">
    <path d="M 489.73622 160.22249 
L 489.73622 20.14375 
" style="fill: none; stroke: #000000; stroke-width: 0.8; stroke-linejoin: miter; stroke-linecap: square"/>
   </g>
   <g id="patch_15">
    <path d="M 349.65748 160.22249 
L 489.73622 160.22249 
" style="fill: none; stroke: #000000; stroke-width: 0.8; stroke-linejoin: miter; stroke-linecap: square"/>
   </g>
   <g id="patch_16">
    <path d="M 349.65748 20.14375 
L 489.73622 20.14375 
" style="fill: none; stroke: #000000; stroke-width: 0.8; stroke-linejoin: miter; stroke-linecap: square"/>
   </g>
   <g id="text_30">
    <!-- (c) Four-Quadrant -->
    <g transform="translate(383.283569 14.14375) scale(0.1 -0.1)">
     <defs>
      <path id="TimesNewRomanPSMT-63" d="M 2631 1088 
Q 2516 522 2178 217 
Q 1841 -88 1431 -88 
Q 944 -88 581 321 
Q 219 731 219 1428 
Q 219 2103 620 2525 
Q 1022 2947 1584 2947 
Q 2006 2947 2278 2723 
Q 2550 2500 2550 2259 
Q 2550 2141 2473 2067 
Q 2397 1994 2259 1994 
Q 2075 1994 1981 2113 
Q 1928 2178 1911 2362 
Q 1894 2547 1784 2644 
Q 1675 2738 1481 2738 
Q 1169 2738 978 2506 
Q 725 2200 725 1697 
Q 725 1184 976 792 
Q 1228 400 1656 400 
Q 1963 400 2206 609 
Q 2378 753 2541 1131 
L 2631 1088 
z
" transform="scale(0.015625)"/>
      <path id="TimesNewRomanPSMT-46" d="M 1309 4006 
L 1309 2341 
L 2081 2341 
Q 2347 2341 2470 2458 
Q 2594 2575 2634 2922 
L 2750 2922 
L 2750 1488 
L 2634 1488 
Q 2631 1734 2570 1850 
Q 2509 1966 2401 2023 
Q 2294 2081 2081 2081 
L 1309 2081 
L 1309 750 
Q 1309 428 1350 325 
Q 1381 247 1481 191 
Q 1619 116 1769 116 
L 1922 116 
L 1922 0 
L 103 0 
L 103 116 
L 253 116 
Q 516 116 634 269 
Q 709 369 709 750 
L 709 3488 
Q 709 3809 669 3913 
Q 638 3991 541 4047 
Q 406 4122 253 4122 
L 103 4122 
L 103 4238 
L 3256 4238 
L 3297 3306 
L 3188 3306 
Q 3106 3603 2998 3742 
Q 2891 3881 2733 3943 
Q 2575 4006 2244 4006 
L 1309 4006 
z
" transform="scale(0.015625)"/>
      <path id="TimesNewRomanPSMT-75" d="M 2709 2863 
L 2709 1128 
Q 2709 631 2732 520 
Q 2756 409 2807 365 
Q 2859 322 2928 322 
Q 3025 322 3147 375 
L 3191 266 
L 2334 -88 
L 2194 -88 
L 2194 519 
Q 1825 119 1631 15 
Q 1438 -88 1222 -88 
Q 981 -88 804 51 
Q 628 191 559 409 
Q 491 628 491 1028 
L 491 2306 
Q 491 2509 447 2587 
Q 403 2666 317 2708 
Q 231 2750 6 2747 
L 6 2863 
L 1009 2863 
L 1009 947 
Q 1009 547 1148 422 
Q 1288 297 1484 297 
Q 1619 297 1789 381 
Q 1959 466 2194 703 
L 2194 2325 
Q 2194 2569 2105 2655 
Q 2016 2741 1734 2747 
L 1734 2863 
L 2709 2863 
z
" transform="scale(0.015625)"/>
      <path id="TimesNewRomanPSMT-2d" d="M 259 1672 
L 1875 1672 
L 1875 1200 
L 259 1200 
L 259 1672 
z
" transform="scale(0.015625)"/>
      <path id="TimesNewRomanPSMT-51" d="M 2819 -47 
Q 3138 -597 3508 -856 
Q 3878 -1116 4350 -1153 
L 4350 -1253 
Q 3919 -1238 3428 -1080 
Q 2938 -922 2498 -642 
Q 2059 -363 1741 -47 
Q 1291 134 1028 338 
Q 647 641 436 1083 
Q 225 1525 225 2128 
Q 225 3078 840 3706 
Q 1456 4334 2331 4334 
Q 3163 4334 3770 3704 
Q 4378 3075 4378 2116 
Q 4378 1338 3945 750 
Q 3513 163 2819 -47 
z
M 2294 4094 
Q 1725 4094 1378 3688 
Q 941 3178 941 2128 
Q 941 1100 1384 544 
Q 1728 116 2294 116 
Q 2881 116 3241 544 
Q 3663 1050 3663 2038 
Q 3663 2797 3431 3316 
Q 3253 3716 2958 3905 
Q 2663 4094 2294 4094 
z
" transform="scale(0.015625)"/>
      <path id="TimesNewRomanPSMT-64" d="M 2222 322 
Q 2013 103 1813 7 
Q 1613 -88 1381 -88 
Q 913 -88 563 304 
Q 213 697 213 1313 
Q 213 1928 600 2439 
Q 988 2950 1597 2950 
Q 1975 2950 2222 2709 
L 2222 3238 
Q 2222 3728 2198 3840 
Q 2175 3953 2125 3993 
Q 2075 4034 2000 4034 
Q 1919 4034 1784 3984 
L 1744 4094 
L 2597 4444 
L 2738 4444 
L 2738 1134 
Q 2738 631 2761 520 
Q 2784 409 2836 365 
Q 2888 322 2956 322 
Q 3041 322 3181 375 
L 3216 266 
L 2366 -88 
L 2222 -88 
L 2222 322 
z
M 2222 541 
L 2222 2016 
Q 2203 2228 2109 2403 
Q 2016 2578 1861 2667 
Q 1706 2756 1559 2756 
Q 1284 2756 1069 2509 
Q 784 2184 784 1559 
Q 784 928 1059 592 
Q 1334 256 1672 256 
Q 1956 256 2222 541 
z
" transform="scale(0.015625)"/>
      <path id="TimesNewRomanPSMT-74" d="M 1031 3803 
L 1031 2863 
L 1700 2863 
L 1700 2644 
L 1031 2644 
L 1031 788 
Q 1031 509 1111 412 
Q 1191 316 1316 316 
Q 1419 316 1516 380 
Q 1613 444 1666 569 
L 1788 569 
Q 1678 263 1478 108 
Q 1278 -47 1066 -47 
Q 922 -47 784 33 
Q 647 113 581 261 
Q 516 409 516 719 
L 516 2644 
L 63 2644 
L 63 2747 
Q 234 2816 414 2980 
Q 594 3144 734 3369 
Q 806 3488 934 3803 
L 1031 3803 
z
" transform="scale(0.015625)"/>
     </defs>
     <use xlink:href="#TimesNewRomanPSMT-28"/>
     <use xlink:href="#TimesNewRomanPSMT-63" transform="translate(33.300781 0)"/>
     <use xlink:href="#TimesNewRomanPSMT-29" transform="translate(77.685547 0)"/>
     <use xlink:href="#TimesNewRomanPSMT-20" transform="translate(110.986328 0)"/>
     <use xlink:href="#TimesNewRomanPSMT-46" transform="translate(135.986328 0)"/>
     <use xlink:href="#TimesNewRomanPSMT-6f" transform="translate(191.601562 0)"/>
     <use xlink:href="#TimesNewRomanPSMT-75" transform="translate(241.601562 0)"/>
     <use xlink:href="#TimesNewRomanPSMT-72" transform="translate(291.601562 0)"/>
     <use xlink:href="#TimesNewRomanPSMT-2d" transform="translate(322.902344 0)"/>
     <use xlink:href="#TimesNewRomanPSMT-51" transform="translate(356.203125 0)"/>
     <use xlink:href="#TimesNewRomanPSMT-75" transform="translate(428.419922 0)"/>
     <use xlink:href="#TimesNewRomanPSMT-61" transform="translate(478.419922 0)"/>
     <use xlink:href="#TimesNewRomanPSMT-64" transform="translate(522.804688 0)"/>
     <use xlink:href="#TimesNewRomanPSMT-72" transform="translate(572.804688 0)"/>
     <use xlink:href="#TimesNewRomanPSMT-61" transform="translate(606.105469 0)"/>
     <use xlink:href="#TimesNewRomanPSMT-6e" transform="translate(650.490234 0)"/>
     <use xlink:href="#TimesNewRomanPSMT-74" transform="translate(700.490234 0)"/>
    </g>
   </g>
  </g>
  <g id="legend_1">
   <g id="patch_17">
    <path d="M 93.81311 219.32249 
L 401.52311 219.32249 
Q 403.32311 219.32249 403.32311 217.52249 
L 403.32311 192.972178 
Q 403.32311 191.172178 401.52311 191.172178 
L 93.81311 191.172178 
Q 92.01311 191.172178 92.01311 192.972178 
L 92.01311 217.52249 
Q 92.01311 219.32249 93.81311 219.32249 
z
" style="fill: #ffffff; opacity: 0.8; stroke: #000000; stroke-linejoin: miter"/>
   </g>
   <g id="line2d_67">
    <path d="M 95.61311 197.922178 
L 104.61311 197.922178 
L 113.61311 197.922178 
" style="fill: none; stroke: #ffffff; stroke-width: 1.5; stroke-linecap: square"/>
    <defs>
     <path id="m8313631590" d="M 0 3.5 
C 0.928211 3.5 1.81853 3.131218 2.474874 2.474874 
C 3.131218 1.81853 3.5 0.928211 3.5 0 
C 3.5 -0.928211 3.131218 -1.81853 2.474874 -2.474874 
C 1.81853 -3.131218 0.928211 -3.5 0 -3.5 
C -0.928211 -3.5 -1.81853 -3.131218 -2.474874 -2.474874 
C -3.131218 -1.81853 -3.5 -0.928211 -3.5 0 
C -3.5 0.928211 -3.131218 1.81853 -2.474874 2.474874 
C -1.81853 3.131218 -0.928211 3.5 0 3.5 
z
" style="stroke: #000000; stroke-width: 0.5"/>
    </defs>
    <g>
     <use xlink:href="#m8313631590" x="104.61311" y="197.922178" style="fill: #ff9999; stroke: #000000; stroke-width: 0.5"/>
    </g>
   </g>
   <g id="text_31">
    <!-- $Re\sim 1000$ $0.98A$ -->
    <g transform="translate(120.81311 201.072178) scale(0.09 -0.09)">
     <defs>
      <path id="Cmmi10-52" d="M 313 0 
Q 250 0 250 84 
Q 253 100 262 139 
Q 272 178 289 201 
Q 306 225 331 225 
Q 722 225 878 269 
Q 959 297 997 441 
L 1875 3956 
Q 1888 4019 1888 4044 
Q 1888 4113 1813 4122 
Q 1691 4147 1350 4147 
Q 1288 4147 1288 4231 
Q 1291 4247 1300 4286 
Q 1309 4325 1326 4348 
Q 1344 4372 1369 4372 
L 3309 4372 
Q 3541 4372 3791 4319 
Q 4041 4266 4250 4152 
Q 4459 4038 4593 3848 
Q 4728 3659 4728 3406 
Q 4728 3084 4515 2831 
Q 4303 2578 3978 2408 
Q 3653 2238 3347 2169 
Q 3597 2078 3756 1879 
Q 3916 1681 3916 1422 
Q 3916 1388 3914 1370 
Q 3913 1353 3909 1331 
L 3859 763 
Q 3853 638 3847 550 
Q 3841 463 3841 409 
Q 3841 234 3892 129 
Q 3944 25 4097 25 
Q 4297 25 4448 211 
Q 4600 397 4647 616 
Q 4675 672 4709 672 
L 4769 672 
Q 4831 672 4831 588 
Q 4784 403 4682 237 
Q 4581 72 4426 -34 
Q 4272 -141 4091 -141 
Q 3716 -141 3452 26 
Q 3188 194 3188 550 
Q 3188 684 3213 788 
L 3353 1356 
Q 3378 1434 3378 1538 
Q 3378 1803 3198 1954 
Q 3019 2106 2747 2106 
L 1959 2106 
L 1538 416 
Q 1522 363 1522 325 
Q 1522 259 1600 250 
Q 1722 225 2059 225 
Q 2125 225 2125 141 
Q 2103 50 2090 25 
Q 2078 0 2016 0 
L 313 0 
z
M 1997 2272 
L 2706 2272 
Q 3403 2272 3756 2625 
Q 3919 2788 4014 3039 
Q 4109 3291 4109 3541 
Q 4109 3778 3970 3912 
Q 3831 4047 3626 4097 
Q 3422 4147 3175 4147 
L 2747 4147 
Q 2572 4147 2515 4117 
Q 2459 4088 2413 3928 
L 1997 2272 
z
" transform="scale(0.015625)"/>
      <path id="Cmmi10-65" d="M 1288 -72 
Q 981 -72 751 87 
Q 522 247 401 517 
Q 281 788 281 1088 
Q 281 1544 511 1945 
Q 741 2347 1134 2587 
Q 1528 2828 1978 2828 
Q 2253 2828 2458 2686 
Q 2663 2544 2663 2278 
Q 2663 1909 2369 1729 
Q 2075 1550 1706 1508 
Q 1338 1466 891 1466 
L 872 1466 
Q 769 1084 769 813 
Q 769 528 900 312 
Q 1031 97 1300 97 
Q 1681 97 2032 272 
Q 2384 447 2606 756 
Q 2625 775 2656 775 
Q 2688 775 2720 739 
Q 2753 703 2753 672 
Q 2753 647 2741 634 
Q 2506 306 2109 117 
Q 1713 -72 1288 -72 
z
M 909 1631 
Q 1281 1631 1597 1665 
Q 1913 1700 2169 1839 
Q 2425 1978 2425 2272 
Q 2425 2391 2359 2480 
Q 2294 2569 2189 2616 
Q 2084 2663 1972 2663 
Q 1700 2663 1483 2516 
Q 1266 2369 1125 2133 
Q 984 1897 909 1631 
z
" transform="scale(0.015625)"/>
      <path id="Cmsy10-bb" d="M 447 850 
Q 378 850 359 1013 
L 359 1050 
Q 359 1544 654 1947 
Q 950 2350 1422 2350 
Q 1716 2350 1955 2204 
Q 2194 2059 2516 1768 
Q 2838 1478 3055 1343 
Q 3272 1209 3553 1209 
Q 3806 1209 4006 1346 
Q 4206 1484 4320 1712 
Q 4434 1941 4434 2188 
Q 4453 2350 4525 2350 
Q 4597 2350 4616 2188 
L 4616 2150 
Q 4616 1841 4486 1537 
Q 4356 1234 4115 1042 
Q 3875 850 3553 850 
Q 3259 850 3031 989 
Q 2803 1128 2481 1417 
Q 2159 1706 1931 1848 
Q 1703 1991 1422 1991 
Q 1172 1991 969 1853 
Q 766 1716 652 1487 
Q 538 1259 538 1013 
Q 519 850 447 850 
z
" transform="scale(0.015625)"/>
      <path id="Cmr10-31" d="M 594 0 
L 594 225 
Q 1394 225 1394 428 
L 1394 3788 
Q 1063 3628 556 3628 
L 556 3853 
Q 1341 3853 1741 4263 
L 1831 4263 
Q 1853 4263 1873 4245 
Q 1894 4228 1894 4206 
L 1894 428 
Q 1894 225 2694 225 
L 2694 0 
L 594 0 
z
" transform="scale(0.015625)"/>
      <path id="Cmr10-30" d="M 1600 -141 
Q 816 -141 533 504 
Q 250 1150 250 2041 
Q 250 2597 351 3087 
Q 453 3578 754 3920 
Q 1056 4263 1600 4263 
Q 2022 4263 2290 4056 
Q 2559 3850 2700 3523 
Q 2841 3197 2892 2823 
Q 2944 2450 2944 2041 
Q 2944 1491 2842 1011 
Q 2741 531 2444 195 
Q 2147 -141 1600 -141 
z
M 1600 25 
Q 1956 25 2131 390 
Q 2306 756 2347 1200 
Q 2388 1644 2388 2144 
Q 2388 2625 2347 3031 
Q 2306 3438 2132 3767 
Q 1959 4097 1600 4097 
Q 1238 4097 1063 3765 
Q 888 3434 847 3029 
Q 806 2625 806 2144 
Q 806 1788 823 1472 
Q 841 1156 916 820 
Q 991 484 1158 254 
Q 1325 25 1600 25 
z
" transform="scale(0.015625)"/>
      <path id="Cmmi10-3a" d="M 538 353 
Q 538 497 644 600 
Q 750 703 891 703 
Q 978 703 1062 656 
Q 1147 609 1194 525 
Q 1241 441 1241 353 
Q 1241 213 1137 106 
Q 1034 0 891 0 
Q 750 0 644 106 
Q 538 213 538 353 
z
" transform="scale(0.015625)"/>
      <path id="Cmr10-39" d="M 722 269 
Q 897 63 1331 63 
Q 1575 63 1786 228 
Q 1997 394 2113 634 
Q 2247 906 2284 1214 
Q 2322 1522 2322 1978 
Q 2213 1719 2008 1553 
Q 1803 1388 1538 1388 
Q 1166 1388 873 1589 
Q 581 1791 425 2120 
Q 269 2450 269 2822 
Q 269 3206 444 3539 
Q 619 3872 928 4067 
Q 1238 4263 1631 4263 
Q 2019 4263 2280 4052 
Q 2541 3841 2678 3508 
Q 2816 3175 2870 2803 
Q 2925 2431 2925 2069 
Q 2925 1575 2744 1061 
Q 2563 547 2202 203 
Q 1841 -141 1331 -141 
Q 953 -141 690 37 
Q 428 216 428 575 
Q 428 706 517 795 
Q 606 884 738 884 
Q 866 884 955 795 
Q 1044 706 1044 575 
Q 1044 450 953 359 
Q 863 269 738 269 
L 722 269 
z
M 1563 1556 
Q 1825 1556 1992 1732 
Q 2159 1909 2234 2171 
Q 2309 2434 2309 2694 
L 2309 2816 
L 2309 2841 
Q 2309 3322 2168 3700 
Q 2028 4078 1631 4078 
Q 1378 4078 1220 3967 
Q 1063 3856 988 3672 
Q 913 3488 892 3278 
Q 872 3069 872 2822 
Q 872 2459 906 2203 
Q 941 1947 1094 1751 
Q 1247 1556 1563 1556 
z
" transform="scale(0.015625)"/>
      <path id="Cmr10-38" d="M 269 972 
Q 269 1356 522 1651 
Q 775 1947 1172 2144 
L 934 2297 
Q 716 2441 578 2680 
Q 441 2919 441 3181 
Q 441 3488 602 3734 
Q 763 3981 1030 4122 
Q 1297 4263 1600 4263 
Q 1884 4263 2148 4147 
Q 2413 4031 2583 3815 
Q 2753 3600 2753 3303 
Q 2753 3088 2651 2903 
Q 2550 2719 2373 2572 
Q 2197 2425 1997 2322 
L 2363 2088 
Q 2616 1922 2770 1653 
Q 2925 1384 2925 1088 
Q 2925 741 2739 456 
Q 2553 172 2247 15 
Q 1941 -141 1600 -141 
Q 1269 -141 961 -6 
Q 653 128 461 383 
Q 269 638 269 972 
z
M 616 972 
Q 616 719 755 509 
Q 894 300 1122 181 
Q 1350 63 1600 63 
Q 1972 63 2275 280 
Q 2578 497 2578 856 
Q 2578 978 2529 1098 
Q 2481 1219 2395 1317 
Q 2309 1416 2203 1478 
L 1344 2034 
Q 1144 1928 976 1765 
Q 809 1603 712 1400 
Q 616 1197 616 972 
z
M 1056 2925 
L 1831 2425 
Q 2100 2581 2272 2803 
Q 2444 3025 2444 3303 
Q 2444 3519 2323 3698 
Q 2203 3878 2009 3978 
Q 1816 4078 1594 4078 
Q 1400 4078 1203 4003 
Q 1006 3928 878 3779 
Q 750 3631 750 3431 
Q 750 3131 1056 2925 
z
" transform="scale(0.015625)"/>
     </defs>
     <use xlink:href="#Cmmi10-52" transform="translate(0 0.421875)"/>
     <use xlink:href="#Cmmi10-65" transform="translate(75.878906 0.421875)"/>
     <use xlink:href="#Cmsy10-bb" transform="translate(139.921875 0.421875)"/>
     <use xlink:href="#Cmr10-31" transform="translate(235.166016 0.421875)"/>
     <use xlink:href="#Cmr10-30" transform="translate(285.166016 0.421875)"/>
     <use xlink:href="#Cmr10-30" transform="translate(335.166016 0.421875)"/>
     <use xlink:href="#Cmr10-30" transform="translate(385.166016 0.421875)"/>
     <use xlink:href="#TimesNewRomanPSMT-20" transform="translate(435.166016 0.421875)"/>
     <use xlink:href="#Cmr10-30" transform="translate(460.166016 0.421875)"/>
     <use xlink:href="#Cmmi10-3a" transform="translate(510.166016 0.421875)"/>
     <use xlink:href="#Cmr10-39" transform="translate(537.851562 0.421875)"/>
     <use xlink:href="#Cmr10-38" transform="translate(587.851562 0.421875)"/>
     <use xlink:href="#Cmmi10-41" transform="translate(637.851562 0.421875)"/>
    </g>
   </g>
   <g id="line2d_68">
    <path d="M 95.61311 210.647334 
L 104.61311 210.647334 
L 113.61311 210.647334 
" style="fill: none; stroke: #ffffff; stroke-width: 1.5; stroke-linecap: square"/>
    <defs>
     <path id="m1345d08de6" d="M 0 3.5 
C 0.928211 3.5 1.81853 3.131218 2.474874 2.474874 
C 3.131218 1.81853 3.5 0.928211 3.5 0 
C 3.5 -0.928211 3.131218 -1.81853 2.474874 -2.474874 
C 1.81853 -3.131218 0.928211 -3.5 0 -3.5 
C -0.928211 -3.5 -1.81853 -3.131218 -2.474874 -2.474874 
C -3.131218 -1.81853 -3.5 -0.928211 -3.5 0 
C -3.5 0.928211 -3.131218 1.81853 -2.474874 2.474874 
C -1.81853 3.131218 -0.928211 3.5 0 3.5 
z
" style="stroke: #000000; stroke-width: 0.5"/>
    </defs>
    <g>
     <use xlink:href="#m1345d08de6" x="104.61311" y="210.647334" style="fill: #ff0000; stroke: #000000; stroke-width: 0.5"/>
    </g>
   </g>
   <g id="text_32">
    <!-- $Re\sim 3000$ $0.98A$ -->
    <g transform="translate(120.81311 213.797334) scale(0.09 -0.09)">
     <defs>
      <path id="Cmr10-33" d="M 609 494 
Q 759 275 1012 169 
Q 1266 63 1556 63 
Q 1928 63 2084 380 
Q 2241 697 2241 1100 
Q 2241 1281 2208 1462 
Q 2175 1644 2097 1800 
Q 2019 1956 1883 2050 
Q 1747 2144 1550 2144 
L 1125 2144 
Q 1069 2144 1069 2203 
L 1069 2259 
Q 1069 2309 1125 2309 
L 1478 2338 
Q 1703 2338 1851 2506 
Q 2000 2675 2069 2917 
Q 2138 3159 2138 3378 
Q 2138 3684 1994 3881 
Q 1850 4078 1556 4078 
Q 1313 4078 1091 3986 
Q 869 3894 738 3706 
Q 750 3709 759 3711 
Q 769 3713 781 3713 
Q 925 3713 1022 3613 
Q 1119 3513 1119 3372 
Q 1119 3234 1022 3134 
Q 925 3034 781 3034 
Q 641 3034 541 3134 
Q 441 3234 441 3372 
Q 441 3647 606 3850 
Q 772 4053 1033 4158 
Q 1294 4263 1556 4263 
Q 1750 4263 1965 4205 
Q 2181 4147 2356 4039 
Q 2531 3931 2642 3762 
Q 2753 3594 2753 3378 
Q 2753 3109 2633 2881 
Q 2513 2653 2303 2487 
Q 2094 2322 1844 2241 
Q 2122 2188 2372 2031 
Q 2622 1875 2773 1631 
Q 2925 1388 2925 1106 
Q 2925 753 2731 467 
Q 2538 181 2222 20 
Q 1906 -141 1556 -141 
Q 1256 -141 954 -26 
Q 653 88 461 316 
Q 269 544 269 863 
Q 269 1022 375 1128 
Q 481 1234 641 1234 
Q 744 1234 830 1186 
Q 916 1138 964 1050 
Q 1013 963 1013 863 
Q 1013 706 903 600 
Q 794 494 641 494 
L 609 494 
z
" transform="scale(0.015625)"/>
     </defs>
     <use xlink:href="#Cmmi10-52" transform="translate(0 0.421875)"/>
     <use xlink:href="#Cmmi10-65" transform="translate(75.878906 0.421875)"/>
     <use xlink:href="#Cmsy10-bb" transform="translate(139.921875 0.421875)"/>
     <use xlink:href="#Cmr10-33" transform="translate(235.166016 0.421875)"/>
     <use xlink:href="#Cmr10-30" transform="translate(285.166016 0.421875)"/>
     <use xlink:href="#Cmr10-30" transform="translate(335.166016 0.421875)"/>
     <use xlink:href="#Cmr10-30" transform="translate(385.166016 0.421875)"/>
     <use xlink:href="#TimesNewRomanPSMT-20" transform="translate(435.166016 0.421875)"/>
     <use xlink:href="#Cmr10-30" transform="translate(460.166016 0.421875)"/>
     <use xlink:href="#Cmmi10-3a" transform="translate(510.166016 0.421875)"/>
     <use xlink:href="#Cmr10-39" transform="translate(537.851562 0.421875)"/>
     <use xlink:href="#Cmr10-38" transform="translate(587.851562 0.421875)"/>
     <use xlink:href="#Cmmi10-41" transform="translate(637.851562 0.421875)"/>
    </g>
   </g>
   <g id="line2d_69">
    <path d="M 202.98311 197.922178 
L 211.98311 197.922178 
L 220.98311 197.922178 
" style="fill: none; stroke: #ffffff; stroke-width: 1.5; stroke-linecap: square"/>
    <defs>
     <path id="me9e0668512" d="M 0 3.5 
C 0.928211 3.5 1.81853 3.131218 2.474874 2.474874 
C 3.131218 1.81853 3.5 0.928211 3.5 0 
C 3.5 -0.928211 3.131218 -1.81853 2.474874 -2.474874 
C 1.81853 -3.131218 0.928211 -3.5 0 -3.5 
C -0.928211 -3.5 -1.81853 -3.131218 -2.474874 -2.474874 
C -3.131218 -1.81853 -3.5 -0.928211 -3.5 0 
C -3.5 0.928211 -3.131218 1.81853 -2.474874 2.474874 
C -1.81853 3.131218 -0.928211 3.5 0 3.5 
z
" style="stroke: #000000; stroke-width: 0.5"/>
    </defs>
    <g>
     <use xlink:href="#me9e0668512" x="211.98311" y="197.922178" style="fill: #4e4e4e; stroke: #000000; stroke-width: 0.5"/>
    </g>
   </g>
   <g id="text_33">
    <!-- $Re\sim 1000$ $1.00A$ -->
    <g transform="translate(228.18311 201.072178) scale(0.09 -0.09)">
     <use xlink:href="#Cmmi10-52" transform="translate(0 0.421875)"/>
     <use xlink:href="#Cmmi10-65" transform="translate(75.878906 0.421875)"/>
     <use xlink:href="#Cmsy10-bb" transform="translate(139.921875 0.421875)"/>
     <use xlink:href="#Cmr10-31" transform="translate(235.166016 0.421875)"/>
     <use xlink:href="#Cmr10-30" transform="translate(285.166016 0.421875)"/>
     <use xlink:href="#Cmr10-30" transform="translate(335.166016 0.421875)"/>
     <use xlink:href="#Cmr10-30" transform="translate(385.166016 0.421875)"/>
     <use xlink:href="#TimesNewRomanPSMT-20" transform="translate(435.166016 0.421875)"/>
     <use xlink:href="#Cmr10-31" transform="translate(460.166016 0.421875)"/>
     <use xlink:href="#Cmmi10-3a" transform="translate(510.166016 0.421875)"/>
     <use xlink:href="#Cmr10-30" transform="translate(537.851562 0.421875)"/>
     <use xlink:href="#Cmr10-30" transform="translate(587.851562 0.421875)"/>
     <use xlink:href="#Cmmi10-41" transform="translate(637.851562 0.421875)"/>
    </g>
   </g>
   <g id="line2d_70">
    <path d="M 202.98311 210.647334 
L 211.98311 210.647334 
L 220.98311 210.647334 
" style="fill: none; stroke: #ffffff; stroke-width: 1.5; stroke-linecap: square"/>
    <defs>
     <path id="m9a6a9be6bf" d="M 0 3.5 
C 0.928211 3.5 1.81853 3.131218 2.474874 2.474874 
C 3.131218 1.81853 3.5 0.928211 3.5 0 
C 3.5 -0.928211 3.131218 -1.81853 2.474874 -2.474874 
C 1.81853 -3.131218 0.928211 -3.5 0 -3.5 
C -0.928211 -3.5 -1.81853 -3.131218 -2.474874 -2.474874 
C -3.131218 -1.81853 -3.5 -0.928211 -3.5 0 
C -3.5 0.928211 -3.131218 1.81853 -2.474874 2.474874 
C -1.81853 3.131218 -0.928211 3.5 0 3.5 
z
" style="stroke: #000000; stroke-width: 0.5"/>
    </defs>
    <g>
     <use xlink:href="#m9a6a9be6bf" x="211.98311" y="210.647334" style="stroke: #000000; stroke-width: 0.5"/>
    </g>
   </g>
   <g id="text_34">
    <!-- $Re\sim 3000$ $1.00A$ -->
    <g transform="translate(228.18311 213.797334) scale(0.09 -0.09)">
     <use xlink:href="#Cmmi10-52" transform="translate(0 0.421875)"/>
     <use xlink:href="#Cmmi10-65" transform="translate(75.878906 0.421875)"/>
     <use xlink:href="#Cmsy10-bb" transform="translate(139.921875 0.421875)"/>
     <use xlink:href="#Cmr10-33" transform="translate(235.166016 0.421875)"/>
     <use xlink:href="#Cmr10-30" transform="translate(285.166016 0.421875)"/>
     <use xlink:href="#Cmr10-30" transform="translate(335.166016 0.421875)"/>
     <use xlink:href="#Cmr10-30" transform="translate(385.166016 0.421875)"/>
     <use xlink:href="#TimesNewRomanPSMT-20" transform="translate(435.166016 0.421875)"/>
     <use xlink:href="#Cmr10-31" transform="translate(460.166016 0.421875)"/>
     <use xlink:href="#Cmmi10-3a" transform="translate(510.166016 0.421875)"/>
     <use xlink:href="#Cmr10-30" transform="translate(537.851562 0.421875)"/>
     <use xlink:href="#Cmr10-30" transform="translate(587.851562 0.421875)"/>
     <use xlink:href="#Cmmi10-41" transform="translate(637.851562 0.421875)"/>
    </g>
   </g>
   <g id="line2d_71">
    <path d="M 310.35311 197.922178 
L 319.35311 197.922178 
L 328.35311 197.922178 
" style="fill: none; stroke: #ffffff; stroke-width: 1.5; stroke-linecap: square"/>
    <defs>
     <path id="m0198867d25" d="M 0 3.5 
C 0.928211 3.5 1.81853 3.131218 2.474874 2.474874 
C 3.131218 1.81853 3.5 0.928211 3.5 0 
C 3.5 -0.928211 3.131218 -1.81853 2.474874 -2.474874 
C 1.81853 -3.131218 0.928211 -3.5 0 -3.5 
C -0.928211 -3.5 -1.81853 -3.131218 -2.474874 -2.474874 
C -3.131218 -1.81853 -3.5 -0.928211 -3.5 0 
C -3.5 0.928211 -3.131218 1.81853 -2.474874 2.474874 
C -1.81853 3.131218 -0.928211 3.5 0 3.5 
z
" style="stroke: #000000; stroke-width: 0.5"/>
    </defs>
    <g>
     <use xlink:href="#m0198867d25" x="319.35311" y="197.922178" style="fill: #9999ff; stroke: #000000; stroke-width: 0.5"/>
    </g>
   </g>
   <g id="text_35">
    <!-- $Re\sim 1000$ $1.02A$ -->
    <g transform="translate(335.55311 201.072178) scale(0.09 -0.09)">
     <defs>
      <path id="Cmr10-32" d="M 319 0 
L 319 172 
Q 319 188 331 206 
L 1325 1306 
Q 1550 1550 1690 1715 
Q 1831 1881 1968 2097 
Q 2106 2313 2186 2536 
Q 2266 2759 2266 3009 
Q 2266 3272 2169 3511 
Q 2072 3750 1880 3894 
Q 1688 4038 1416 4038 
Q 1138 4038 916 3870 
Q 694 3703 603 3438 
Q 628 3444 672 3444 
Q 816 3444 917 3347 
Q 1019 3250 1019 3097 
Q 1019 2950 917 2848 
Q 816 2747 672 2747 
Q 522 2747 420 2851 
Q 319 2956 319 3097 
Q 319 3338 409 3548 
Q 500 3759 670 3923 
Q 841 4088 1055 4175 
Q 1269 4263 1509 4263 
Q 1875 4263 2190 4108 
Q 2506 3953 2690 3670 
Q 2875 3388 2875 3009 
Q 2875 2731 2753 2481 
Q 2631 2231 2440 2026 
Q 2250 1822 1953 1562 
Q 1656 1303 1563 1216 
L 838 519 
L 1453 519 
Q 1906 519 2211 526 
Q 2516 534 2534 550 
Q 2609 631 2688 1141 
L 2875 1141 
L 2694 0 
L 319 0 
z
" transform="scale(0.015625)"/>
     </defs>
     <use xlink:href="#Cmmi10-52" transform="translate(0 0.421875)"/>
     <use xlink:href="#Cmmi10-65" transform="translate(75.878906 0.421875)"/>
     <use xlink:href="#Cmsy10-bb" transform="translate(139.921875 0.421875)"/>
     <use xlink:href="#Cmr10-31" transform="translate(235.166016 0.421875)"/>
     <use xlink:href="#Cmr10-30" transform="translate(285.166016 0.421875)"/>
     <use xlink:href="#Cmr10-30" transform="translate(335.166016 0.421875)"/>
     <use xlink:href="#Cmr10-30" transform="translate(385.166016 0.421875)"/>
     <use xlink:href="#TimesNewRomanPSMT-20" transform="translate(435.166016 0.421875)"/>
     <use xlink:href="#Cmr10-31" transform="translate(460.166016 0.421875)"/>
     <use xlink:href="#Cmmi10-3a" transform="translate(510.166016 0.421875)"/>
     <use xlink:href="#Cmr10-30" transform="translate(537.851562 0.421875)"/>
     <use xlink:href="#Cmr10-32" transform="translate(587.851562 0.421875)"/>
     <use xlink:href="#Cmmi10-41" transform="translate(637.851562 0.421875)"/>
    </g>
   </g>
   <g id="line2d_72">
    <path d="M 310.35311 210.647334 
L 319.35311 210.647334 
L 328.35311 210.647334 
" style="fill: none; stroke: #ffffff; stroke-width: 1.5; stroke-linecap: square"/>
    <defs>
     <path id="m044da162d1" d="M 0 3.5 
C 0.928211 3.5 1.81853 3.131218 2.474874 2.474874 
C 3.131218 1.81853 3.5 0.928211 3.5 0 
C 3.5 -0.928211 3.131218 -1.81853 2.474874 -2.474874 
C 1.81853 -3.131218 0.928211 -3.5 0 -3.5 
C -0.928211 -3.5 -1.81853 -3.131218 -2.474874 -2.474874 
C -3.131218 -1.81853 -3.5 -0.928211 -3.5 0 
C -3.5 0.928211 -3.131218 1.81853 -2.474874 2.474874 
C -1.81853 3.131218 -0.928211 3.5 0 3.5 
z
" style="stroke: #000000; stroke-width: 0.5"/>
    </defs>
    <g>
     <use xlink:href="#m044da162d1" x="319.35311" y="210.647334" style="fill: #0000ff; stroke: #000000; stroke-width: 0.5"/>
    </g>
   </g>
   <g id="text_36">
    <!-- $Re\sim 3000$ $1.02A$ -->
    <g transform="translate(335.55311 213.797334) scale(0.09 -0.09)">
     <use xlink:href="#Cmmi10-52" transform="translate(0 0.421875)"/>
     <use xlink:href="#Cmmi10-65" transform="translate(75.878906 0.421875)"/>
     <use xlink:href="#Cmsy10-bb" transform="translate(139.921875 0.421875)"/>
     <use xlink:href="#Cmr10-33" transform="translate(235.166016 0.421875)"/>
     <use xlink:href="#Cmr10-30" transform="translate(285.166016 0.421875)"/>
     <use xlink:href="#Cmr10-30" transform="translate(335.166016 0.421875)"/>
     <use xlink:href="#Cmr10-30" transform="translate(385.166016 0.421875)"/>
     <use xlink:href="#TimesNewRomanPSMT-20" transform="translate(435.166016 0.421875)"/>
     <use xlink:href="#Cmr10-31" transform="translate(460.166016 0.421875)"/>
     <use xlink:href="#Cmmi10-3a" transform="translate(510.166016 0.421875)"/>
     <use xlink:href="#Cmr10-30" transform="translate(537.851562 0.421875)"/>
     <use xlink:href="#Cmr10-32" transform="translate(587.851562 0.421875)"/>
     <use xlink:href="#Cmmi10-41" transform="translate(637.851562 0.421875)"/>
    </g>
   </g>
  </g>
 </g>
 <defs>
  <clipPath id="pe1c35a968b">
   <rect x="36.4" y="20.14375" width="140.07874" height="140.07874"/>
  </clipPath>
  <clipPath id="p2555ff2970">
   <rect x="193.02874" y="20.14375" width="140.07874" height="140.07874"/>
  </clipPath>
  <clipPath id="p094c6bb40d">
   <rect x="349.65748" y="20.14375" width="140.07874" height="140.07874"/>
  </clipPath>
 </defs>
</svg>
